<svg width="50" height="50" viewBox="0 0 50 50" fill="none" xmlns="http://www.w3.org/2000/svg">
<g id="Group">
<path id="Vector" d="M49.9788 32.4997C49.5345 23.622 42.2043 16.6555 33.3192 16.6665C31.0253 16.6693 28.7566 17.1459 26.6554 18.0665V0.833327C26.6554 0.612315 26.5676 0.400355 26.4114 0.244076C26.2552 0.0877967 26.0433 0 25.8224 0H17.4926C17.2717 0 17.0598 0.0877967 16.9036 0.244076C16.7474 0.400355 16.6596 0.612315 16.6596 0.833327V4.16663H9.16278C8.94186 4.16663 8.72999 4.25443 8.57377 4.41071C8.41756 4.56699 8.3298 4.77895 8.3298 4.99996V9.1666H0.83298C0.61206 9.1666 0.400188 9.25439 0.243974 9.41067C0.0877601 9.56695 0 9.77891 0 9.99992L0 33.3331C0 33.5541 0.0877601 33.766 0.243974 33.9223C0.400188 34.0786 0.61206 34.1664 0.83298 34.1664H16.7012C17.1613 43.3596 24.9837 50.439 34.173 49.9788C43.3623 49.5186 50.4388 41.6929 49.9788 32.4997ZM8.3298 32.4997H1.66596V10.8332H8.3298V32.4997ZM16.6596 32.4997H9.99576V5.83329H16.6596V32.4997ZM18.3256 1.66665H24.9894V18.9249C22.0975 20.5993 19.7757 23.105 18.3256 26.1165V1.66665ZM33.3192 48.333C25.0396 48.1923 18.4417 41.3636 18.5822 33.0807C18.7139 25.3175 24.7456 18.938 32.4862 18.3749V33.3331C32.4862 33.5541 32.574 33.766 32.7302 33.9223C32.8864 34.0786 33.0983 34.1664 33.3192 34.1664H48.3128C47.8703 42.1235 41.2853 48.3452 33.3192 48.333ZM34.1522 32.4997V18.3749C41.7799 18.787 47.8783 24.8701 48.3128 32.4997H34.1522Z" fill="#E03021"/>
<path id="Vector_2" d="M44.9227 5.51667C44.8596 5.36318 44.7522 5.232 44.6142 5.13996C44.4762 5.04791 44.3139 4.99918 44.148 5.00001H38.3171V6.66666H42.1405L36.6512 12.1583L33.9107 9.40831C33.8336 9.33061 33.742 9.26885 33.6412 9.22655C33.5403 9.18426 33.432 9.16226 33.3226 9.16182C33.2132 9.16137 33.1048 9.18249 33.0036 9.22396C32.9024 9.26543 32.8103 9.32645 32.7326 9.40352L32.7278 9.40831L28.5629 13.5749L29.7458 14.7583L33.3192 11.175L36.0597 13.9249C36.1368 14.0026 36.2284 14.0644 36.3293 14.1067C36.4302 14.149 36.5384 14.171 36.6478 14.1714C36.7572 14.1719 36.8656 14.1508 36.9668 14.1093C37.0681 14.0678 37.1601 14.0068 37.2378 13.9297L37.2426 13.9249L43.315 7.84165V11.6666H44.981V5.83334C44.9867 5.72466 44.9667 5.61617 44.9227 5.51667ZM1.66602 37.4998H14.9937V39.1664H1.66602V37.4998ZM1.66602 40.8331H14.9937V42.4997H1.66602V40.8331ZM1.66602 44.1664H14.9937V45.833H1.66602V44.1664Z" fill="#E03021"/>
</g>
</svg>
