<svg width="40" height="40" viewBox="0 0 40 40" fill="none" xmlns="http://www.w3.org/2000/svg">
<g id="Frame">
<g id="Group">
<path id="Vector" d="M36.5625 26.25H36.1427C36.0606 26.2502 35.9793 26.2342 35.9034 26.2027C35.8276 26.1713 35.7587 26.1251 35.7009 26.0669L32.9524 23.3184L34.1456 22.6366L29.6653 18.1563C29.26 17.7488 28.7779 17.4257 28.2469 17.2058C27.7158 16.9859 27.1465 16.8734 26.5717 16.875H23.125V14.7612L23.2066 14.7205C23.8676 14.3928 24.4344 13.9024 24.8536 13.2952C25.2728 12.6881 25.5305 11.9843 25.6027 11.25H26.25C26.7473 11.25 27.2242 11.0525 27.5758 10.7008C27.9275 10.3492 28.125 9.87228 28.125 9.375C28.125 8.87772 27.9275 8.40081 27.5758 8.04917C27.2242 7.69754 26.7473 7.5 26.25 7.5H25.625V1.25H17.5C16.6715 1.25095 15.8772 1.5805 15.2913 2.16634C14.7055 2.75219 14.376 3.54649 14.375 4.375V7.5H13.75C13.2527 7.5 12.7758 7.69754 12.4242 8.04917C12.0725 8.40081 11.875 8.87772 11.875 9.375C11.875 9.87228 12.0725 10.3492 12.4242 10.7008C12.7758 11.0525 13.2527 11.25 13.75 11.25H14.3973C14.4694 11.9843 14.7272 12.6881 15.1464 13.2952C15.5656 13.9024 16.1324 14.3928 16.7934 14.7205L16.875 14.7612V16.875H13.4283C12.8535 16.8734 12.2842 16.9859 11.7531 17.2058C11.2221 17.4257 10.74 17.7488 10.3347 18.1563L5.85445 22.6367L7.04758 23.3185L4.29914 26.067C4.24126 26.1252 4.17239 26.1713 4.09654 26.2028C4.0207 26.2342 3.93937 26.2502 3.85727 26.25H3.4375C2.85734 26.25 2.30094 26.4805 1.8907 26.8907C1.48047 27.3009 1.25 27.8573 1.25 28.4375C1.25 29.0177 1.48047 29.5741 1.8907 29.9843C2.30094 30.3945 2.85734 30.625 3.4375 30.625H5.73227C5.7843 30.625 5.83586 30.6224 5.88711 30.6182C5.193 31.257 4.70792 32.0905 4.49536 33.0096C4.2828 33.9287 4.35266 34.8906 4.69579 35.7693C5.03892 36.648 5.63935 37.4027 6.41848 37.9345C7.19761 38.4663 8.11916 38.7506 9.0625 38.75H30.9375C31.8808 38.7506 32.8024 38.4663 33.5815 37.9345C34.3607 37.4027 34.9611 36.648 35.3042 35.7693C35.6473 34.8906 35.7172 33.9287 35.5046 33.0096C35.2921 32.0905 34.807 31.257 34.1129 30.6182C34.1644 30.6226 34.216 30.6248 34.2677 30.625H36.5625C37.1427 30.625 37.6991 30.3945 38.1093 29.9843C38.5195 29.5741 38.75 29.0177 38.75 28.4375C38.75 27.8573 38.5195 27.3009 38.1093 26.8907C37.6991 26.4805 37.1427 26.25 36.5625 26.25ZM25.625 8.75H26.25C26.4158 8.75 26.5747 8.81585 26.6919 8.93306C26.8092 9.05027 26.875 9.20924 26.875 9.375C26.875 9.54076 26.8092 9.69973 26.6919 9.81694C26.5747 9.93415 26.4158 10 26.25 10H25.625V8.75ZM14.375 10H13.75C13.5842 10 13.4253 9.93415 13.3081 9.81694C13.1908 9.69973 13.125 9.54076 13.125 9.375C13.125 9.20924 13.1908 9.05027 13.3081 8.93306C13.4253 8.81585 13.5842 8.75 13.75 8.75H14.375V10ZM24.375 6.5982L22.0986 5.74453L22.7262 5.58758C23.3404 5.4347 23.9069 5.13167 24.375 4.7057V6.5982ZM15.625 4.375C15.6256 3.87789 15.8233 3.4013 16.1748 3.04979C16.5263 2.69828 17.0029 2.50056 17.5 2.5H24.2987C24.1857 2.95337 23.9515 3.36743 23.621 3.69776C23.2906 4.02808 22.8765 4.2622 22.423 4.375L15.625 6.07453V4.375ZM15.625 10.8073V7.36297L19.9627 6.27852L24.375 7.93305V10.8073C24.377 11.3881 24.2162 11.9578 23.9108 12.4518C23.6055 12.9459 23.1678 13.3445 22.6475 13.6024L20.8385 14.507C20.578 14.6364 20.291 14.7038 20 14.7038C19.7091 14.7038 19.4221 14.6364 19.1616 14.507L17.3525 13.6024C16.8322 13.3445 16.3945 12.9459 16.0892 12.4518C15.7838 11.9578 15.623 11.3881 15.625 10.8073ZM21.875 15.3862V17.1875L20 18.5938L18.125 17.1875V15.3862L18.6025 15.625C19.0368 15.8408 19.5151 15.9532 20 15.9532C20.485 15.9532 20.9633 15.8408 21.3976 15.625L21.875 15.3862ZM11.2187 19.0403C11.5082 18.7492 11.8525 18.5184 12.2318 18.3613C12.6111 18.2042 13.0177 18.1239 13.4283 18.125H17.2916L20 20.1562L22.7084 18.125H26.5717C26.9823 18.1239 27.3889 18.2042 27.7682 18.3613C28.1475 18.5184 28.4918 18.7492 28.7813 19.0403L32.1045 22.3634L28.8544 24.2205L25.625 20.9912V29.375H25.4864L20.1252 31.877L14.375 29.5769V20.9912L11.1456 24.2205L7.89563 22.3634L11.2187 19.0403ZM32.5148 29.6488C32.0088 29.4673 31.4751 29.3747 30.9375 29.375H26.875V24.0088L28.308 25.442L32.5148 29.6488ZM11.692 25.442L13.125 24.0088V29.375H9.0625C8.52487 29.3747 7.99123 29.4673 7.48516 29.6488L11.692 25.442ZM5.73227 29.375H3.4375C3.18886 29.375 2.9504 29.2762 2.77459 29.1004C2.59877 28.9246 2.5 28.6861 2.5 28.4375C2.5 28.1889 2.59877 27.9504 2.77459 27.7746C2.9504 27.5988 3.18886 27.5 3.4375 27.5H3.85727C4.10359 27.5007 4.3476 27.4525 4.57517 27.3582C4.80274 27.2639 5.00935 27.1254 5.18305 26.9508L8.17258 23.9613L10.2295 25.1366L6.17414 29.1919C6.11626 29.2501 6.0474 29.2963 5.97155 29.3277C5.8957 29.3592 5.81437 29.3752 5.73227 29.375ZM10 37.5H9.0625C8.15082 37.5 7.27648 37.1378 6.63182 36.4932C5.98716 35.8485 5.625 34.9742 5.625 34.0625C5.625 33.1508 5.98716 32.2765 6.63182 31.6318C7.27648 30.9872 8.15082 30.625 9.0625 30.625H13.6297L18.5718 32.6018L16.2372 33.6913C16.1543 33.7298 16.064 33.7498 15.9727 33.75H13.75C12.7558 33.7511 11.8026 34.1466 11.0996 34.8496C10.3966 35.5526 10.0011 36.5058 10 37.5ZM17.9877 37.5H11.25C11.2508 36.8372 11.5144 36.2018 11.9831 35.7331C12.4518 35.2644 13.0872 35.0008 13.75 35H15.9573L18.0259 37.4823L17.9877 37.5ZM28.75 37.5H20.9706L26.0134 35.1726C26.2598 35.0593 26.5278 35.0004 26.7991 35H26.875C27.3721 35.0006 27.8487 35.1983 28.2002 35.5498C28.5517 35.9013 28.7494 36.3779 28.75 36.875V37.5ZM34.375 34.0625C34.374 34.9739 34.0115 35.8476 33.367 36.492C32.7226 37.1365 31.8489 37.499 30.9375 37.5H30V36.875C29.999 36.0465 29.6695 35.2522 29.0837 34.6663C28.4978 34.0805 27.7035 33.7509 26.875 33.75H26.7991C26.347 33.7507 25.9003 33.8488 25.4895 34.0377L19.201 36.94L17.2495 34.5982L25.7636 30.625H30.9375C31.8489 30.626 32.7226 30.9885 33.367 31.633C34.0115 32.2774 34.374 33.1511 34.375 34.0625ZM36.5625 29.375H34.2677C34.1856 29.3752 34.1043 29.3592 34.0284 29.3277C33.9526 29.2963 33.8837 29.2501 33.8259 29.1919L29.7705 25.1366L31.8274 23.9613L34.8169 26.9509C34.9906 27.1255 35.1972 27.264 35.4248 27.3582C35.6524 27.4525 35.8964 27.5007 36.1427 27.5H36.5625C36.8111 27.5 37.0496 27.5988 37.2254 27.7746C37.4012 27.9504 37.5 28.1889 37.5 28.4375C37.5 28.6861 37.4012 28.9246 37.2254 29.1004C37.0496 29.2762 36.8111 29.375 36.5625 29.375Z" fill="#E03021"/>
<path id="Vector_2" d="M16.875 8.75H19.375V10H16.875V8.75ZM20.625 8.75H23.125V10H20.625V8.75ZM18.75 11.875H21.25V13.125H18.75V11.875Z" fill="#E03021"/>
</g>
</g>
</svg>
