<svg width="70" height="71" viewBox="0 0 70 71" fill="none" xmlns="http://www.w3.org/2000/svg">
<g clip-path="url(#clip0_490_769)">
<path d="M39.3812 37.3264C40.7528 37.3264 42.0937 36.9197 43.2342 36.1577C44.3747 35.3957 45.2636 34.3126 45.7885 33.0454C46.3134 31.7781 46.4507 30.3837 46.1832 29.0384C45.9156 27.6931 45.2551 26.4574 44.2852 25.4875C43.3153 24.5176 42.0796 23.8571 40.7343 23.5896C39.389 23.322 37.9946 23.4593 36.7274 23.9842C35.4601 24.5091 34.377 25.398 33.615 26.5385C32.853 27.679 32.4463 29.0199 32.4463 30.3915C32.4484 32.2301 33.1797 33.9928 34.4798 35.2929C35.7799 36.593 37.5426 37.3243 39.3812 37.3264ZM39.3812 25.2338C40.4013 25.2338 41.3985 25.5362 42.2467 26.1029C43.0949 26.6697 43.756 27.4752 44.1464 28.4176C44.5368 29.3601 44.639 30.3971 44.44 31.3976C44.241 32.3981 43.7498 33.3172 43.0284 34.0385C42.3071 34.7598 41.3881 35.2511 40.3876 35.4501C39.3871 35.6491 38.3501 35.547 37.4076 35.1566C36.4651 34.7662 35.6596 34.1052 35.0929 33.257C34.5261 32.4088 34.2236 31.4116 34.2236 30.3915C34.2252 29.0241 34.769 27.7131 35.7359 26.7462C36.7028 25.7792 38.0138 25.2353 39.3812 25.2338Z" fill="#616161"/>
<path d="M3.89635 70.418H50.7499C51.6867 70.4169 52.5848 70.0443 53.2473 69.3819C53.9097 68.7194 54.2823 67.8213 54.2834 66.8845V61.732L56.869 62.2166C57.3251 62.3021 57.7935 62.297 58.2476 62.2014C58.7017 62.1059 59.1325 61.9219 59.5154 61.6598C59.8984 61.3978 60.226 61.0629 60.4795 60.6742C60.733 60.2856 60.9075 59.8508 60.993 59.3947L69.6246 13.344C69.7101 12.888 69.7049 12.4195 69.6094 11.9654C69.5138 11.5114 69.3298 11.0806 69.0678 10.6976C68.8057 10.3147 68.4708 9.98707 68.0822 9.73355C67.6935 9.48003 67.2588 9.30555 66.8027 9.22006L20.752 0.587228C20.2959 0.501684 19.8275 0.506819 19.3734 0.602341C18.9193 0.697863 18.4884 0.881901 18.1055 1.14394C17.7225 1.40599 17.3949 1.7409 17.1414 2.12956C16.8879 2.51822 16.7135 2.95301 16.628 3.4091L14.1743 16.4976H3.89635C2.95945 16.4985 2.06116 16.871 1.3986 17.5334C0.736049 18.1958 0.363354 19.0941 0.362305 20.031V66.8845C0.363354 67.8214 0.736044 68.7196 1.39859 69.3821C2.06114 70.0445 2.95943 70.4171 3.89635 70.418ZM46.4022 16.4976C46.7359 15.7983 47.2229 15.1832 47.827 14.698C48.4311 14.2128 49.1368 13.8699 49.8916 13.695C50.6464 13.52 51.431 13.5174 52.1869 13.6874C52.9429 13.8573 53.6508 14.1955 54.2582 14.6767C54.8655 15.1579 55.3565 15.7697 55.6948 16.4668C56.0331 17.1639 56.21 17.9283 56.2122 18.7031C56.2145 19.4779 56.0421 20.2433 55.7079 20.9423C55.3737 21.6414 54.8862 22.2561 54.2817 22.7409V19.7127C54.2817 19.2905 54.1985 18.8724 54.037 18.4823C53.8754 18.0922 53.6385 17.7378 53.34 17.4392C53.0414 17.1407 52.687 16.9039 52.2969 16.7423C51.9068 16.5807 51.4887 16.4976 51.0665 16.4976H46.4022ZM59.2443 59.0673C59.1585 59.525 58.8943 59.9299 58.51 60.1929C58.1257 60.4559 57.6527 60.5555 57.1949 60.4698L54.2817 59.9237V43.4134L60.8245 50.6382L59.2443 59.0673ZM18.3749 3.73654C18.4173 3.50987 18.504 3.29379 18.63 3.10064C18.756 2.90748 18.9188 2.74104 19.1091 2.61081C19.2995 2.48059 19.5136 2.38914 19.7393 2.34168C19.9649 2.29422 20.1978 2.29169 20.4244 2.33422L66.4753 10.9669C66.933 11.0527 67.3379 11.3169 67.6009 11.7013C67.8639 12.0856 67.9635 12.5587 67.8777 13.0165L61.2362 48.4445L54.2821 40.7656V24.8566C55.2853 24.3293 56.1441 23.5642 56.7831 22.6283C57.4222 21.6923 57.8221 20.614 57.948 19.4877C58.0738 18.3613 57.9216 17.2213 57.5049 16.1674C57.0881 15.1135 56.4194 14.1778 55.5573 13.4421C54.6951 12.7065 53.6658 12.1934 52.5594 11.9476C51.4531 11.7019 50.3033 11.7311 49.2108 12.0326C48.1184 12.3341 47.1164 12.8987 46.2927 13.6771C45.4689 14.4555 44.8485 15.4239 44.4857 16.4976H15.9823L18.3749 3.73654ZM2.13965 20.031C2.13963 19.8003 2.18506 19.5719 2.27335 19.3588C2.36163 19.1457 2.49104 18.9521 2.65417 18.789C2.81731 18.6259 3.01098 18.4966 3.22412 18.4084C3.43725 18.3202 3.66568 18.2748 3.89635 18.2749H50.7559C51.2196 18.2749 51.6644 18.4591 51.9924 18.787C52.3204 19.1149 52.5047 19.5597 52.5048 20.0234V57.7794L34.2788 40.4954L28.4819 44.0321L19.5446 35.0946L2.13965 47.6365V20.031ZM2.13965 49.8273L19.3565 37.4206L28.2133 46.2775L34.0428 42.7212L52.5048 60.229V66.8839C52.5044 67.3496 52.3193 67.7962 51.9901 68.1255C51.6608 68.4549 51.2143 68.6401 50.7486 68.6406H3.89635C3.43077 68.6401 2.98441 68.4549 2.65521 68.1257C2.32601 67.7964 2.14084 67.3501 2.14033 66.8845L2.13965 49.8273Z" fill="#616161"/>
</g>
<defs>
<clipPath id="clip0_490_769">
<rect width="70" height="70" fill="white" transform="translate(0 0.5)"/>
</clipPath>
</defs>
</svg>
