<svg width="50" height="50" viewBox="0 0 50 50" fill="none" xmlns="http://www.w3.org/2000/svg">
<g id="Frame" clip-path="url(#clip0_155_2409)">
<g id="Group">
<path id="Vector" d="M45 22.5H46.6667V5.83333C46.6667 5.61232 46.5789 5.40036 46.4226 5.24408C46.2663 5.0878 46.0544 5 45.8333 5H37.5V6.66667H45V22.5ZM0.116771 44.1618C0.152926 44.3191 0.201088 44.4733 0.260833 44.6232C0.286875 44.6868 0.326771 44.7424 0.356875 44.8034C0.418323 44.9372 0.488726 45.0666 0.567604 45.1908C0.681434 45.3578 0.810004 45.5143 0.951771 45.6583C0.961458 45.6681 0.967604 45.6799 0.977396 45.6893C0.9875 45.6982 0.998542 45.7052 1.00833 45.7149C1.15238 45.8567 1.30883 45.9852 1.47583 46.0991C1.60008 46.1779 1.7295 46.2483 1.86323 46.3098C1.92427 46.34 1.9799 46.3798 2.04344 46.4058C2.19335 46.4656 2.34762 46.5137 2.5049 46.5499C2.56104 46.5642 2.61146 46.5881 2.67167 46.5992C2.88938 46.644 3.11125 46.6663 3.33333 46.6667H22.5V45H3.33333C3.22146 45 3.10958 44.9891 3 44.9667C2.96188 44.9594 2.92604 44.9434 2.88823 44.9325C2.82031 44.9162 2.75356 44.8954 2.68844 44.8702C2.63104 44.8442 2.57531 44.8149 2.52156 44.7823C2.4825 44.7599 2.43823 44.7424 2.40313 44.7184C2.22214 44.5961 2.06633 44.4402 1.94417 44.2591C1.92021 44.2216 1.90271 44.1801 1.8799 44.141C1.84729 44.0869 1.81844 44.0317 1.7924 43.9742C1.76693 43.909 1.74611 43.8421 1.7301 43.774C1.71917 43.7366 1.70333 43.7007 1.69594 43.6625C1.64706 43.4203 1.65267 43.1702 1.71236 42.9304C1.77205 42.6906 1.88433 42.4671 2.04107 42.2761C2.1978 42.085 2.39506 41.9312 2.61857 41.8258C2.84207 41.7204 3.08622 41.6661 3.33333 41.6667H5.83333C6.05435 41.6667 6.26631 41.5789 6.42259 41.4226C6.57887 41.2663 6.66667 41.0544 6.66667 40.8333V6.66667H27.5V5H6.66667V0.833333C6.66667 0.61232 6.57887 0.400358 6.42259 0.244078C6.26631 0.0877974 6.05435 0 5.83333 0L3.33333 0C1.4925 0 0 1.4925 0 3.33333V43.3333C0 43.5571 0.0228125 43.7805 0.0675 43.9998C0.0785417 44.0552 0.1025 44.1056 0.116771 44.1618ZM1.66667 3.33333C1.66667 2.41292 2.41292 1.66667 3.33333 1.66667H5V40H3.33333C2.74795 39.9991 2.17281 40.1535 1.66667 40.4476V3.33333Z" fill="#E03021"/>
<path id="Vector_2" d="M28.3334 38.3333C28.5544 38.3333 28.7664 38.2455 28.9227 38.0893C29.079 37.933 29.1667 37.721 29.1667 37.5C29.1703 36.7344 29.0211 35.9758 28.728 35.2685C28.4348 34.5612 28.0036 33.9195 27.4595 33.3809C26.7787 32.6885 25.9321 32.1818 25.0001 31.9092V29.1667H25.8334C26.0544 29.1667 26.2664 29.0789 26.4227 28.9226C26.579 28.7663 26.6667 28.5543 26.6667 28.3333V25C26.6667 24.779 26.579 24.567 26.4227 24.4107C26.2664 24.2545 26.0544 24.1667 25.8334 24.1667H25.0001V20.8333H20.0834C20.4819 18.8945 22.1876 17.5021 24.1667 17.5H25.0001V15H27.5001V13.3333H25.0001V10.8333C25.0001 10.6123 24.9123 10.4004 24.756 10.2441C24.5997 10.0878 24.3878 10 24.1667 10H10.0001C9.77907 10 9.56711 10.0878 9.41083 10.2441C9.25455 10.4004 9.16675 10.6123 9.16675 10.8333V40.8333C9.16675 41.0543 9.25455 41.2663 9.41083 41.4226C9.56711 41.5789 9.77907 41.6667 10.0001 41.6667H14.1667V37.5833C16.1056 37.9818 17.498 39.6875 17.5001 41.6667H27.5001V40H25.0001V38.3333H28.3334ZM25.0001 27.5H23.3334V25.8333H25.0001V27.5ZM23.3334 14.1667V15.9C20.466 16.3139 18.3366 18.7696 18.3334 21.6667C18.3334 21.8877 18.4212 22.0996 18.5775 22.2559C18.7338 22.4122 18.9457 22.5 19.1667 22.5H23.3334V24.1667H22.5001C22.2791 24.1667 22.0671 24.2545 21.9108 24.4107C21.7545 24.567 21.6667 24.779 21.6667 25V25.8333H14.1667V25C14.1667 24.779 14.079 24.567 13.9227 24.4107C13.7664 24.2545 13.5544 24.1667 13.3334 24.1667H10.8334V15H13.3334C13.5544 15 13.7664 14.9122 13.9227 14.7559C14.079 14.5996 14.1667 14.3877 14.1667 14.1667V11.6667H23.3334V14.1667ZM10.8334 25.8333H12.5001V27.5H10.8334V25.8333ZM10.8334 11.6667H12.5001V13.3333H10.8334V11.6667ZM10.8334 40V38.3333H12.5001V40H10.8334ZM18.917 40C18.1784 37.5318 15.9099 35.8385 13.3334 35.8333C13.1124 35.8333 12.9004 35.9211 12.7442 36.0774C12.5879 36.2337 12.5001 36.4457 12.5001 36.6667H10.8334V29.1667H13.3334C13.5544 29.1667 13.7664 29.0789 13.9227 28.9226C14.079 28.7663 14.1667 28.5543 14.1667 28.3333V27.5H21.6667V28.3333C21.6667 28.5543 21.7545 28.7663 21.9108 28.9226C22.0671 29.0789 22.2791 29.1667 22.5001 29.1667H23.3334V32.5749C23.3334 32.985 23.6313 33.3342 24.0357 33.3984C24.889 33.5341 25.676 33.9408 26.2802 34.5585C26.8613 35.1318 27.2572 35.8661 27.4167 36.6667H24.1667C23.9457 36.6667 23.7338 36.7545 23.5775 36.9107C23.4212 37.067 23.3334 37.279 23.3334 37.5V40H18.917ZM38.3334 18.3333H40.8334V26.6667H42.5001V14.1667C42.5001 13.9457 42.4123 13.7337 42.256 13.5774C42.0997 13.4211 41.8878 13.3333 41.6667 13.3333H38.3334C38.1124 13.3333 37.9004 13.4211 37.7442 13.5774C37.5879 13.7337 37.5001 13.9457 37.5001 14.1667V17.5C37.5001 17.721 37.5879 17.933 37.7442 18.0893C37.9004 18.2455 38.1124 18.3333 38.3334 18.3333ZM40.8334 15V16.6667H39.1667V15H40.8334ZM49.4858 22.5635C49.3335 22.5004 49.1659 22.4839 49.0042 22.5161C48.8426 22.5482 48.694 22.6276 48.5775 22.7442L22.7441 48.5775C22.6276 48.6941 22.5483 48.8425 22.5162 49.0042C22.484 49.1658 22.5005 49.3333 22.5636 49.4856C22.6267 49.6379 22.7335 49.768 22.8705 49.8596C23.0075 49.9511 23.1686 50 23.3334 50H49.1669C49.3879 50 49.5998 49.9122 49.7561 49.7559C49.9124 49.5996 50.0002 49.3877 50.0002 49.1667V23.3333C50.0001 23.1685 49.9513 23.0075 49.8597 22.8705C49.7682 22.7334 49.638 22.6266 49.4858 22.5635ZM48.3334 48.3333H25.3451L48.3334 25.345V48.3333Z" fill="#E03021"/>
<path id="Vector_3" d="M35.0636 44.4857C35.1267 44.6379 35.2335 44.768 35.3706 44.8596C35.5076 44.9511 35.6686 45 35.8334 45H44.1667C44.3878 45 44.5997 44.9122 44.756 44.7559C44.9123 44.5996 45.0001 44.3877 45.0001 44.1667V35.8333C45.0001 35.4965 44.797 35.1925 44.4857 35.0635C44.1745 34.9346 43.8159 35.0061 43.5776 35.2442L35.2442 43.5775C35.1277 43.694 35.0483 43.8425 35.0161 44.0042C34.9839 44.1659 35.0005 44.3334 35.0636 44.4857ZM43.3334 37.8451V43.3333H37.8451L43.3334 37.8451ZM31.786 30.4293C31.9365 30.6799 32.2075 30.8329 32.5001 30.8329C32.7927 30.8329 33.0636 30.6799 33.2141 30.4293L35.7141 26.2626C35.7922 26.133 35.8334 25.9846 35.8334 25.8333V3.33333C35.8334 1.4925 34.3409 0 32.5001 0C30.6592 0 29.1667 1.4925 29.1667 3.33333V25.8333C29.1667 25.9847 29.2079 26.1328 29.286 26.2626L31.786 30.4293ZM32.5001 28.3802L31.4719 26.6667H33.5283L32.5001 28.3802ZM30.8334 25V6.66667H34.1667V25H30.8334ZM32.5001 1.66667C33.4205 1.66667 34.1667 2.41292 34.1667 3.33333V5H30.8334V3.33333C30.8334 2.41292 31.5797 1.66667 32.5001 1.66667Z" fill="#E03021"/>
</g>
</g>
<defs>
<clipPath id="clip0_155_2409">
<rect width="50" height="50" fill="white"/>
</clipPath>
</defs>
</svg>
