<svg width="40" height="40" viewBox="0 0 40 40" fill="none" xmlns="http://www.w3.org/2000/svg">
<g id="Frame" clip-path="url(#clip0_32_688)">
<g id="Group">
<path id="Vector" d="M39.111 37.4284H7.88798C7.75238 37.4283 7.61858 37.3973 7.49683 37.3376C7.37507 37.2778 7.2686 37.1911 7.18554 37.0839C7.10248 36.9767 7.04504 36.8519 7.01762 36.7191C6.9902 36.5863 6.99353 36.449 7.02734 36.3177C7.08329 36.0996 7.11149 35.8754 7.11128 35.6503C7.11128 34.18 5.9148 32.9839 4.44446 32.9839C4.21807 32.9839 3.99361 33.012 3.77749 33.0678C3.5111 33.136 3.22851 33.0776 3.01124 32.9093C2.79396 32.7411 2.66686 32.4818 2.66686 32.2068V2.64489L1.38194 3.50112C0.973494 3.77355 0.421635 3.66333 0.149591 3.25498C0.0848211 3.15784 0.0398192 3.0489 0.0171552 2.93437C-0.00550885 2.81985 -0.00539117 2.70198 0.0175015 2.5875C0.0403942 2.47302 0.0856136 2.36416 0.150577 2.26716C0.215541 2.17016 0.298976 2.0869 0.396119 2.02214L3.06256 0.244071C3.19643 0.154893 3.35199 0.103715 3.51267 0.0959952C3.67334 0.088275 3.83309 0.124301 3.9749 0.200233C4.11679 0.276061 4.23542 0.389004 4.31812 0.527002C4.40082 0.665 4.44449 0.82287 4.44446 0.983751V31.2059C6.89506 31.2059 8.88887 33.1997 8.88887 35.6503H37.4499L36.5936 34.3655C36.3212 33.957 36.4318 33.4051 36.8399 33.133C36.937 33.0682 37.0459 33.0232 37.1605 33.0005C37.275 32.9779 37.3928 32.978 37.5073 33.0009C37.6218 33.0238 37.7307 33.069 37.8276 33.134C37.9246 33.1989 38.0079 33.2824 38.0726 33.3796L39.8503 36.046C39.9396 36.1798 39.9909 36.3354 39.9987 36.4961C40.0065 36.6568 39.9704 36.8166 39.8944 36.9584C39.8187 37.1004 39.7057 37.2191 39.5678 37.3018C39.4298 37.3846 39.2719 37.4284 39.111 37.4284Z" fill="#E03021"/>
<path id="Vector_2" d="M4.44441 40.0949C1.99381 40.0949 0 38.1012 0 35.6505C0 33.6214 1.37106 31.8513 3.33417 31.3463C3.69689 31.2531 4.06991 31.2059 4.44441 31.206C6.89531 31.206 8.88883 33.1998 8.88883 35.6505C8.88883 36.0263 8.84201 36.3999 8.74877 36.7611C8.24363 38.7238 6.47381 40.0949 4.44441 40.0949ZM4.44441 32.984C4.21803 32.984 3.99356 33.0121 3.77744 33.068C2.60006 33.3708 1.77798 34.4327 1.77798 35.6505C1.77798 37.1208 2.97407 38.3173 4.44441 38.3173C5.66219 38.3173 6.72417 37.4952 7.0273 36.3178C7.08274 36.1013 7.11123 35.8768 7.11123 35.6505C7.11123 34.1801 5.91514 32.984 4.44441 32.984ZM16.0001 37.4285C15.5092 37.4285 15.1112 37.0301 15.1112 36.5393V23.2061H3.55557C3.32144 23.2036 3.09774 23.1089 2.93304 22.9425C2.76834 22.7761 2.67596 22.5514 2.67596 22.3173C2.67596 22.0831 2.76834 21.8584 2.93304 21.692C3.09774 21.5256 3.32144 21.4309 3.55557 21.4285H16C16.1167 21.4285 16.2323 21.4514 16.3401 21.4961C16.448 21.5407 16.546 21.6062 16.6285 21.6887C16.711 21.7713 16.7765 21.8692 16.8212 21.9771C16.8659 22.0849 16.8889 22.2005 16.8889 22.3172V36.5393C16.8889 37.0301 16.4909 37.4285 16.0001 37.4285Z" fill="#E03021"/>
<path id="Vector_3" d="M24.0001 37.4284C23.5093 37.4284 23.1109 37.03 23.1109 36.5391V15.2063H3.55574C3.06489 15.2063 2.66699 14.8082 2.66699 14.3171C2.66699 14.0813 2.76062 13.8553 2.92729 13.6886C3.09396 13.5219 3.32002 13.4282 3.55574 13.4282H24.0003C24.236 13.4282 24.4621 13.5219 24.6288 13.6886C24.7954 13.8553 24.8891 14.0813 24.8891 14.3171V36.5391C24.8891 37.03 24.491 37.4284 24.0001 37.4284Z" fill="#E03021"/>
<path id="Vector_4" d="M32.0001 37.4284C31.5093 37.4284 31.1109 37.0301 31.1109 36.5392V7.2062H3.55559C3.06474 7.2062 2.66685 6.80831 2.66685 6.31707C2.66687 6.08137 2.76051 5.85533 2.92718 5.68866C3.09385 5.52199 3.31989 5.42835 3.55559 5.42832H31.9998C32.4906 5.42832 32.889 5.82622 32.889 6.31707V36.5392C32.889 37.0301 32.4909 37.4284 32.0001 37.4284ZM6.22126 3.65073C6.04608 3.65077 5.87484 3.59868 5.72936 3.50109L3.06254 1.72359C2.65409 1.45116 2.54396 0.89921 2.81601 0.49076C3.08872 0.0823098 3.6403 -0.0278124 4.04875 0.244232L6.71547 2.02221C7.12402 2.29425 7.23414 2.84621 6.96209 3.25504C6.88075 3.3769 6.77056 3.47678 6.64132 3.5458C6.51207 3.61481 6.36778 3.65092 6.22126 3.65073ZM37.3326 40.0948C37.1573 40.095 36.9859 40.0429 36.8402 39.9453C36.7431 39.8806 36.6597 39.7974 36.5947 39.7004C36.5297 39.6035 36.4845 39.4946 36.4616 39.3802C36.4387 39.2657 36.4386 39.1479 36.4613 39.0334C36.4839 38.9189 36.5289 38.81 36.5937 38.7129L38.3712 36.0462C38.6436 35.6377 39.1956 35.5275 39.604 35.7995C40.0125 36.072 40.123 36.6239 39.8506 37.0324L38.0731 39.6991C37.9918 39.8209 37.8816 39.9208 37.7524 39.9898C37.6233 40.0589 37.4791 40.0949 37.3326 40.0948Z" fill="#E03021"/>
<path id="Vector_5" d="M18.667 17.8728H20.4445V19.6508H18.667V17.8728ZM10.667 25.8729H12.4445V27.6504H10.667V25.8729ZM26.6666 9.8728H28.4445V11.6508H26.6666V9.8728Z" fill="#E03021"/>
</g>
</g>
<defs>
<clipPath id="clip0_32_688">
<rect width="40" height="40" fill="white"/>
</clipPath>
</defs>
</svg>
