<svg width="46" height="45" viewBox="0 0 46 45" fill="none" xmlns="http://www.w3.org/2000/svg">
<g id="Frame" clip-path="url(#clip0_31_374)">
<g id="Group">
<path id="Vector" d="M45.4999 27.6012C45.4638 27.3744 45.3771 27.1587 45.2463 26.9701C45.1154 26.7814 44.9438 26.6246 44.744 26.5113C43.6472 25.8328 41.13 25.2668 38.7007 26.4797C37.6882 26.9859 36.6687 27.5941 35.7194 28.1777C35.6975 28.1341 35.6728 28.0918 35.6456 28.0512C35.3292 27.5801 34.728 27.3481 33.8632 27.3481C32.7874 27.3481 30.7976 28.4027 28.1081 29.9109C27.2948 30.3926 26.4556 30.8292 25.5944 31.2188C25.0319 31.152 24.4835 31.0992 23.8894 31.043C22.9753 30.9551 21.9417 30.8566 20.553 30.6738C20.0762 30.5018 19.6209 30.2753 19.196 29.9988C16.0906 28.1547 12.6609 26.9219 9.09209 26.3672C3.56904 25.4145 1.02725 26.4938 0.921777 26.5395C0.750682 26.614 0.616225 26.7536 0.547987 26.9273C0.479748 27.101 0.483318 27.2947 0.55791 27.4658C0.632502 27.6369 0.772007 27.7714 0.945734 27.8396C1.11946 27.9079 1.31318 27.9043 1.48428 27.8297C1.50889 27.8297 3.74482 26.8734 8.86709 27.7523C12.2697 28.2867 15.5384 29.4682 18.4964 31.2328C19.305 31.6863 19.8358 31.9922 20.3491 32.0625C21.7554 32.2523 22.8101 32.3508 23.7382 32.4387C25.255 32.5517 26.7614 32.7762 28.2452 33.1102C30.8749 33.7043 32.6011 34.766 33.1073 36.0914C33.3675 36.7945 33.3605 37.4977 32.812 38.0602C32.6587 38.2096 32.4786 38.3289 32.2812 38.4117C31.2511 38.8301 28.7655 38.0215 27.3382 37.6102C26.3607 37.2813 25.3543 37.0458 24.3323 36.907C21.3075 36.7935 18.2794 37.0175 15.3042 37.575C15.1214 37.6123 14.961 37.7207 14.8581 37.8763C14.7553 38.0319 14.7185 38.2219 14.7558 38.4047C14.7931 38.5874 14.9014 38.7479 15.057 38.8507C15.2126 38.9536 15.4027 38.9904 15.5854 38.9531C18.4462 38.4283 21.3554 38.2162 24.262 38.3203C25.1742 38.455 26.073 38.6691 26.948 38.9602C28.073 39.2836 29.212 39.607 30.2491 39.7934C26.6808 41.9555 23.3866 43.5938 21.8433 43.5938C18.7987 43.5938 6.14248 37.4555 1.52295 35.093C1.35772 35.0146 1.16846 35.0036 0.995304 35.0625C0.822151 35.1213 0.678737 35.2453 0.595491 35.4082C0.512245 35.571 0.495717 35.7599 0.549413 35.9347C0.60311 36.1095 0.722806 36.2565 0.883105 36.3445C1.58623 36.6961 17.839 45 21.8433 45C23.8894 45 28.3647 42.6586 32.8296 39.8109C33.248 39.5402 33.5116 39.3891 33.8843 39.1359C39.1718 35.659 44.1956 31.6617 44.7968 30.2344C44.9585 29.8835 45.0447 29.5027 45.0499 29.1164C45.3797 28.6831 45.5397 28.1442 45.4999 27.6012ZM39.33 27.7383C41.2319 26.7856 43.1972 27.2145 44.0058 27.7066C44.0287 27.7206 44.0499 27.7371 44.069 27.7559C43.2604 27.4711 42.0194 27.6434 40.3495 28.2867C39.1366 28.7545 37.9864 29.3709 36.9253 30.1219C35.9233 30.7793 34.5558 31.6723 32.0597 33.0258C31.6661 32.8006 31.2573 32.6032 30.8362 32.4352C31.8522 31.9641 33.0616 31.3805 33.5714 31.1168C34.1937 30.7652 34.9284 30.3223 35.7019 29.8406C36.8093 29.1445 38.0819 28.3535 39.3124 27.7383H39.33ZM28.7831 31.1344C30.3827 30.2344 33.0511 28.7859 33.8456 28.7508C34.1164 28.7153 34.3916 28.7417 34.6507 28.8281C34.0003 29.2289 33.3921 29.6016 32.8929 29.8828C32.13 30.2977 29.5952 31.4648 28.8394 31.8094L28.5651 31.7426L27.9218 31.602C28.1854 31.4648 28.4597 31.3102 28.7726 31.1344H28.7831ZM43.5241 29.6895C43.0671 30.7441 39.1296 33.9082 34.6647 36.9492C34.6747 36.4862 34.596 36.0256 34.4327 35.5922C34.1825 34.9655 33.7943 34.4032 33.2972 33.9469C35.4839 32.741 36.746 31.9184 37.6882 31.2996C38.6681 30.6031 39.7309 30.0315 40.8522 29.5981C42.8245 28.8387 43.5769 29.018 43.6647 29.0988C43.6736 29.3063 43.621 29.5118 43.5136 29.6895H43.5241ZM22.9999 25.3125C25.5031 25.3125 27.95 24.5702 30.0313 23.1795C32.1126 21.7889 33.7348 19.8122 34.6928 17.4996C35.6507 15.187 35.9013 12.6422 35.413 10.1871C34.9246 7.73207 33.7192 5.47694 31.9492 3.70694C30.1792 1.93693 27.9241 0.731536 25.469 0.243192C23.0139 -0.245152 20.4692 0.00548378 18.1566 0.963405C15.8439 1.92133 13.8673 3.54351 12.4766 5.62482C11.0859 7.70613 10.3437 10.1531 10.3437 12.6563C10.3437 16.0129 11.6771 19.2321 14.0506 21.6056C16.4241 23.9791 19.6433 25.3125 22.9999 25.3125ZM22.2968 1.43087V2.32032C22.2968 2.5068 22.3709 2.68564 22.5027 2.8175C22.6346 2.94936 22.8134 3.02344 22.9999 3.02344C23.1864 3.02344 23.3652 2.94936 23.4971 2.8175C23.629 2.68564 23.703 2.5068 23.703 2.32032V1.43087C26.4374 1.6027 29.0151 2.76646 30.9524 4.70376C32.8897 6.64107 34.0535 9.21876 34.2253 11.9531H33.3358C33.1494 11.9531 32.9705 12.0272 32.8387 12.1591C32.7068 12.2909 32.6327 12.4698 32.6327 12.6563C32.6327 12.8427 32.7068 13.0216 32.8387 13.1534C32.9705 13.2853 33.1494 13.3594 33.3358 13.3594H34.2253C34.0535 16.0938 32.8897 18.6714 30.9524 20.6087C29.0151 22.5461 26.4374 23.7098 23.703 23.8816V22.9922C23.703 22.8057 23.629 22.6269 23.4971 22.495C23.3652 22.3631 23.1864 22.2891 22.9999 22.2891C22.8134 22.2891 22.6346 22.3631 22.5027 22.495C22.3709 22.6269 22.2968 22.8057 22.2968 22.9922V23.8816C19.5624 23.7098 16.9847 22.5461 15.0474 20.6087C13.1101 18.6714 11.9463 16.0938 11.7745 13.3594H12.664C12.8504 13.3594 13.0293 13.2853 13.1611 13.1534C13.293 13.0216 13.3671 12.8427 13.3671 12.6563C13.3671 12.4698 13.293 12.2909 13.1611 12.1591C13.0293 12.0272 12.8504 11.9531 12.664 11.9531H11.7745C11.9463 9.21876 13.1101 6.64107 15.0474 4.70376C16.9847 2.76646 19.5624 1.6027 22.2968 1.43087Z" fill="#E03021"/>
<path id="Vector_2" d="M19.7409 18.9562C19.8401 19.0101 19.9514 19.0379 20.0643 19.0371C20.1934 19.0373 20.3201 19.002 20.4305 18.9351C20.5409 18.8681 20.6307 18.772 20.6901 18.6574L22.6799 14.7902C22.7856 14.8084 22.8926 14.8178 22.9999 14.8183C23.5095 14.812 24.0006 14.6266 24.3874 14.2948C24.7742 13.963 25.0321 13.5057 25.1158 13.003C25.1996 12.5003 25.104 11.9841 24.8457 11.5448C24.5875 11.1054 24.183 10.7709 23.703 10.5996V5.45972C23.703 5.27324 23.6289 5.09439 23.497 4.96253C23.3652 4.83067 23.1863 4.75659 22.9999 4.75659C22.8134 4.75659 22.6345 4.83067 22.5027 4.96253C22.3708 5.09439 22.2967 5.27324 22.2967 5.45972V10.6031C21.9517 10.7208 21.6419 10.9237 21.396 11.1929C21.1501 11.462 20.976 11.7888 20.8898 12.1431C20.8036 12.4973 20.808 12.8676 20.9028 13.2197C20.9976 13.5717 21.1795 13.8942 21.4319 14.1574L19.4385 18.0246C19.3579 18.1887 19.3443 18.3778 19.4008 18.5517C19.4572 18.7256 19.5792 18.8707 19.7409 18.9562ZM22.9999 11.8898C23.1514 11.8898 23.2996 11.9347 23.4256 12.019C23.5517 12.1032 23.6499 12.2229 23.7079 12.3629C23.7659 12.503 23.7811 12.6571 23.7515 12.8057C23.722 12.9544 23.649 13.0909 23.5418 13.1981C23.4346 13.3053 23.298 13.3783 23.1494 13.4079C23.0007 13.4375 22.8466 13.4223 22.7066 13.3643C22.5665 13.3063 22.4468 13.208 22.3626 13.082C22.2784 12.956 22.2334 12.8078 22.2334 12.6562C22.2344 12.4532 22.3154 12.2588 22.4589 12.1153C22.6025 11.9718 22.7969 11.8907 22.9999 11.8898Z" fill="#E03021"/>
</g>
</g>
<defs>
<clipPath id="clip0_31_374">
<rect width="45" height="45" fill="white" transform="translate(0.5)"/>
</clipPath>
</defs>
</svg>
