<svg width="25" height="25" viewBox="0 0 25 25" fill="none" xmlns="http://www.w3.org/2000/svg">
<g id="Frame">
<g id="Group">
<path id="Vector" d="M22.9167 3.125H2.08335C0.934326 3.125 0 4.05933 0 5.20835V19.7917C0 20.9407 0.934326 21.875 2.08335 21.875H22.9167C24.0657 21.875 25 20.9407 25 19.7917V5.20835C25 4.05933 24.0657 3.125 22.9167 3.125ZM2.08335 4.16665H22.9167C22.9935 4.16665 23.0611 4.19463 23.1331 4.21045C21.3294 5.86118 15.3488 11.3325 13.2559 13.2182C13.0921 13.3657 12.8281 13.5417 12.5 13.5417C12.172 13.5417 11.908 13.3657 11.7437 13.2177C9.65098 11.3323 3.66997 5.86069 1.8666 4.21055C1.93877 4.19473 2.00654 4.16665 2.08335 4.16665ZM1.04165 19.7917V5.20835C1.04165 5.1063 1.07241 5.01372 1.09995 4.92046C2.48042 6.18394 6.65347 10.0015 9.35933 12.4621C6.66226 14.7789 2.48813 18.7363 1.09668 20.0631C1.07212 19.9746 1.04165 19.8879 1.04165 19.7917ZM22.9167 20.8333H2.08335C2.00015 20.8333 1.92617 20.8043 1.84849 20.7858C3.28633 19.4151 7.48701 15.4349 10.1367 13.1682C10.4395 13.443 10.7427 13.7174 11.0463 13.9913C11.4756 14.3789 11.9781 14.5833 12.5 14.5833C13.0219 14.5833 13.5244 14.3789 13.9531 13.9918C14.2569 13.7177 14.5604 13.4432 14.8633 13.1682C17.5131 15.4347 21.7132 19.4146 23.1515 20.7858C23.0738 20.8043 23 20.8333 22.9167 20.8333ZM23.9583 19.7917C23.9583 19.8879 23.9279 19.9746 23.9034 20.0631C22.5114 18.7356 18.3377 14.7786 15.6407 12.4622C18.3467 10.0016 22.5191 6.18433 23.9 4.92036C23.9276 5.01362 23.9583 5.10625 23.9583 5.2083V19.7917Z" fill="#E03021"/>
</g>
</g>
</svg>
