<svg width="25" height="25" viewBox="0 0 25 25" fill="none" xmlns="http://www.w3.org/2000/svg">
<g id="Frame" clip-path="url(#clip0_32_975)">
<g id="Group">
<path id="Vector" d="M21.4334 0.951172H3.56655C1.5999 0.951172 0 2.55112 0 4.51772V16.5764C0 18.543 1.5999 20.1429 3.56655 20.1429H4.96611L4.99351 23.2915C4.99519 23.493 5.07644 23.6858 5.21956 23.8277C5.36268 23.9696 5.55607 24.0492 5.75762 24.0492C5.92663 24.0492 6.09089 23.9932 6.22466 23.8899L11.0794 20.1429H21.4334C23.4001 20.1429 25 18.543 25 16.5764V4.51772C25 2.55112 23.4001 0.951172 21.4334 0.951172ZM23.4715 16.5764C23.4715 17.7002 22.5572 18.6145 21.4334 18.6145H10.8188C10.6499 18.6145 10.4856 18.6705 10.3519 18.7737L6.50854 21.74L6.48794 19.3721C6.48433 18.9526 6.14321 18.6145 5.72373 18.6145H3.56655C2.44277 18.6145 1.52852 17.7002 1.52852 16.5764V4.51772C1.52852 3.39395 2.44277 2.47969 3.56655 2.47969H21.4335C22.5573 2.47969 23.4715 3.39395 23.4715 4.51772L23.4715 16.5764Z" fill="#E03021"/>
</g>
</g>
<defs>
<clipPath id="clip0_32_975">
<rect width="25" height="25" fill="white"/>
</clipPath>
</defs>
</svg>
