<svg width="40" height="40" viewBox="0 0 40 40" fill="none" xmlns="http://www.w3.org/2000/svg">
<g id="Frame" clip-path="url(#clip0_31_643)">
<g id="Group">
<path id="Vector" d="M16.6756 2.67432C8.94653 2.67432 2.68091 8.93994 2.68091 16.669C2.68091 24.3981 8.94653 30.6637 16.6756 30.6637C24.4047 30.6637 30.6703 24.3981 30.6703 16.669C30.6619 8.94344 24.4012 2.68273 16.6756 2.67432ZM16.6756 4.00714C18.7041 4.00874 20.7024 4.49818 22.502 5.43417C24.3016 6.37016 25.8497 7.72524 27.0157 9.3851L25.3496 11.0511C24.9442 10.8058 24.48 10.6745 24.0062 10.6713C22.534 10.6713 21.3405 11.8647 21.3405 13.3369C21.3428 13.8113 21.4734 14.2762 21.7184 14.6824L17.3547 19.0461C16.9494 18.799 16.4839 18.6682 16.0092 18.6682C15.5345 18.6682 15.069 18.799 14.6637 19.0461L11.6328 16.0153C11.8778 15.609 12.0084 15.1441 12.0107 14.6698C12.0125 13.2005 10.823 12.0079 9.35371 12.0061C8.13859 12.0046 7.07691 12.8266 6.77402 14.0034H4.30163C5.5634 8.17665 10.7139 4.01589 16.6756 4.00714ZM25.339 13.3369C25.339 14.0731 24.7423 14.6698 24.0062 14.6698C23.27 14.6698 22.6733 14.0731 22.6733 13.3369C22.6733 12.6008 23.27 12.0041 24.0062 12.0041C24.7423 12.0041 25.339 12.6008 25.339 13.3369ZM17.342 21.3339C17.342 22.07 16.7453 22.6667 16.0092 22.6667C15.2731 22.6667 14.6764 22.07 14.6764 21.3339C14.6764 20.5978 15.2731 20.0011 16.0092 20.0011C16.7453 20.0011 17.342 20.5978 17.342 21.3339ZM10.6779 14.6698C10.6779 15.4059 10.0812 16.0026 9.34505 16.0026C8.60891 16.0026 8.01222 15.4059 8.01222 14.6698C8.01222 13.9336 8.60891 13.3369 9.34505 13.3369C10.0812 13.3369 10.6779 13.9336 10.6779 14.6698ZM22.8278 27.7403C20.9458 28.7853 18.8282 29.3327 16.6756 29.3308C9.68742 29.3355 4.01848 23.6744 4.01374 16.6863C4.0134 16.2353 4.03723 15.7845 4.08504 15.3361H6.77402C7.07699 16.5094 8.13326 17.3308 9.34505 17.3353C9.81941 17.333 10.2843 17.2025 10.6905 16.9575L13.7214 19.9883C13.4764 20.3945 13.3458 20.8595 13.3435 21.3338C13.3435 22.806 14.537 23.9995 16.0092 23.9995C17.4814 23.9995 18.6748 22.806 18.6748 21.3338C18.6725 20.8595 18.542 20.3945 18.297 19.9883L22.6607 15.6247C23.0669 15.8696 23.5318 16.0002 24.0062 16.0025C25.4783 16.0025 26.6718 14.809 26.6718 13.3369C26.6695 12.8625 26.5389 12.3976 26.294 11.9914L27.7467 10.5393C31.1384 16.6476 28.936 24.3488 22.8278 27.7403Z" fill="#E03021"/>
<path id="Vector_2" d="M33.3358 6.67287C34.5476 6.66829 35.6039 5.84702 35.9069 4.67363H40V3.3408H35.9069C35.6039 2.16741 34.5476 1.34614 33.3358 1.34156C31.8636 1.34156 30.6702 2.53502 30.6702 4.00722C30.6725 4.48158 30.803 4.94649 31.048 5.35271L29.8771 6.5236C24.2747 -0.775387 13.816 -2.1507 6.517 3.45176C-0.781979 9.05422 -2.15729 19.513 3.44517 26.812C8.7335 33.7016 18.4274 35.3729 25.7174 30.6518L27.7286 32.663L28.6709 33.6053L34.0356 38.97C35.4 40.3344 37.612 40.3344 38.9764 38.97C40.3408 37.6056 40.3408 35.3936 38.9764 34.0292L33.6117 28.6645L32.6694 27.7222L30.6582 25.711C34.2284 20.2117 34.2284 13.1265 30.6582 7.62718L31.991 6.29435C32.397 6.53942 32.8616 6.67021 33.3358 6.67287ZM33.3358 2.67439C34.072 2.67439 34.6687 3.27108 34.6687 4.00722C34.6687 4.74335 34.072 5.34004 33.3358 5.34004C32.5997 5.34004 32.003 4.74335 32.003 4.00722C32.003 3.27108 32.5998 2.67439 33.3358 2.67439ZM38.0341 34.9715C38.8876 35.8058 38.9031 37.1741 38.0688 38.0277C37.2344 38.8812 35.8661 38.8967 35.0126 38.0624C35.0009 38.051 34.9893 38.0394 34.9779 38.0277L29.6132 32.663L32.6694 29.6068L38.0341 34.9715ZM31.7271 28.6645L28.6709 31.7207L26.8263 29.8761C26.9203 29.8041 27.0082 29.7248 27.1009 29.6508C27.1935 29.5769 27.3008 29.4882 27.4001 29.4049C27.546 29.2823 27.69 29.1583 27.8313 29.0311C27.9039 28.9644 27.9732 28.8978 28.0445 28.8311C28.3177 28.5753 28.5824 28.3106 28.8382 28.0374C28.9048 27.9661 28.9715 27.8968 29.0381 27.8242C29.1652 27.6826 29.2899 27.5389 29.412 27.393C29.4954 27.2945 29.5774 27.1948 29.6579 27.0938C29.7312 27.0018 29.8105 26.9139 29.8825 26.8199L31.7271 28.6645ZM29.1428 25.569C28.9328 25.8623 28.7163 26.1495 28.4877 26.4261C28.421 26.5067 28.3497 26.5847 28.2811 26.664C28.0777 26.9006 27.867 27.1309 27.6493 27.3544C27.5547 27.4521 27.4585 27.5483 27.3608 27.6429C27.1377 27.8611 26.9074 28.0718 26.6704 28.2747C26.5911 28.3413 26.5131 28.414 26.4325 28.4813C26.1559 28.7099 25.8687 28.9264 25.5754 29.1364C18.6767 34.0649 9.08878 32.4678 4.16023 25.569C-0.768317 18.6703 0.828827 9.08238 7.72754 4.15383C14.6263 -0.774721 24.2142 0.82234 29.1428 7.72114C32.9564 13.0593 32.9564 20.2309 29.1428 25.569Z" fill="#E03021"/>
</g>
</g>
<defs>
<clipPath id="clip0_31_643">
<rect width="40" height="40" fill="white"/>
</clipPath>
</defs>
</svg>
