<svg width="46" height="45" viewBox="0 0 46 45" fill="none" xmlns="http://www.w3.org/2000/svg">
<g id="Frame" clip-path="url(#clip0_31_508)">
<g id="Group">
<path id="Vector" d="M21.3393 7.86114C21.5139 7.86114 21.6813 7.79178 21.8048 7.66831C21.9283 7.54484 21.9976 7.37738 21.9976 7.20277V5.67526C21.9976 4.85142 20.6809 4.81385 20.6809 5.67526V7.20277C20.6809 7.37738 20.7503 7.54484 20.8737 7.66831C20.9972 7.79178 21.1647 7.86114 21.3393 7.86114ZM13.9447 9.36179C14.3566 10.0759 15.5156 9.44975 15.0853 8.70386L14.3222 7.38097C13.9105 6.66729 12.7511 7.29275 13.1816 8.0389L13.9447 9.36179ZM9.84868 13.4624L8.52684 12.6987C7.81352 12.2865 7.12223 13.4079 7.86812 13.8388L9.18995 14.6025C9.90275 15.0143 10.595 13.8936 9.84868 13.4624ZM8.34917 20.8621C8.34917 20.6875 8.27981 20.5201 8.15634 20.3966C8.03287 20.2731 7.86541 20.2038 7.6908 20.2038H6.16452C5.34068 20.2038 5.30311 21.5205 6.16452 21.5205H7.6908C7.77726 21.5205 7.86287 21.5035 7.94275 21.4704C8.02262 21.4373 8.0952 21.3888 8.15634 21.3277C8.21747 21.2665 8.26597 21.1939 8.29905 21.1141C8.33214 21.0342 8.34917 20.9486 8.34917 20.8621ZM9.18995 27.1217L7.86812 27.8854C7.15445 28.2978 7.78148 29.4562 8.52684 29.0256L9.84868 28.2619C10.5621 27.8497 9.93593 26.6909 9.18995 27.1217ZM14.844 32.1212C14.6927 32.034 14.513 32.0104 14.3444 32.0557C14.1757 32.1009 14.032 32.2113 13.9447 32.3625L13.1816 33.6853C12.7701 34.3987 13.8913 35.0904 14.3222 34.3433L15.0853 33.0205C15.1725 32.8692 15.1961 32.6895 15.1508 32.5209C15.1056 32.3522 14.9952 32.2085 14.844 32.1212ZM36.5141 20.2038H34.9878C34.1639 20.2038 34.1264 21.5205 34.9878 21.5205H36.5141C37.3379 21.5205 37.3755 20.2038 36.5141 20.2038ZM35.0511 12.9394C34.9638 12.7882 34.8199 12.6779 34.6512 12.6327C34.4826 12.5876 34.3029 12.6113 34.1517 12.6987L32.8299 13.4624C32.1162 13.8747 32.7432 15.0332 33.4886 14.6025L34.8104 13.8388C34.9616 13.7514 35.0719 13.6076 35.117 13.4389C35.1622 13.2703 35.1385 13.0906 35.0511 12.9394ZM29.2557 7.13965C29.1808 7.09643 29.0981 7.06839 29.0124 7.05712C28.9267 7.04586 28.8396 7.0516 28.7561 7.07401C28.6726 7.09641 28.5943 7.13506 28.5257 7.18773C28.4571 7.2404 28.3996 7.30606 28.3564 7.38097L27.5933 8.70386C27.1817 9.41718 28.303 10.1089 28.7338 9.36179L29.4969 8.0389C29.5842 7.88766 29.6078 7.70796 29.5625 7.53932C29.5173 7.37068 29.4069 7.22692 29.2557 7.13965ZM23.2981 18.239V10.8673C23.2981 9.78718 22.4194 8.90848 21.3393 8.90848C20.2592 8.90848 19.3805 9.78718 19.3805 10.8673V18.2389C19.1288 18.4276 18.9053 18.6513 18.7168 18.9032H13.1295C12.0493 18.9032 11.1706 19.782 11.1706 20.8621C11.1706 21.9422 12.0493 22.8209 13.1295 22.8209H18.7168C19.3144 23.6199 20.2675 24.1379 21.3393 24.1379C24.4957 24.1184 25.7897 20.1068 23.2981 18.239ZM18.129 21.5043H13.1295C12.2794 21.4741 12.2801 20.25 13.1295 20.2201H18.129C18.0448 20.633 18.0448 21.0912 18.129 21.5043ZM20.6972 10.8673C20.7272 10.0179 21.9513 10.0173 21.9814 10.8673V17.6499C21.5575 17.5654 21.1211 17.5654 20.6972 17.6499V10.8673ZM21.3393 22.8213C20.2602 22.8213 19.3822 21.9424 19.3822 20.8622C19.4898 18.2631 23.1892 18.2639 23.2963 20.8622C23.2963 21.9424 22.4184 22.8213 21.3393 22.8213Z" fill="#E03021"/>
<path id="Vector_2" d="M43.9987 33.1779L39.6889 30.6877C49.6606 11.1488 27.6252 -8.43683 9.42348 3.7928C9.28057 3.89313 9.18336 4.04612 9.15325 4.21812C9.12315 4.39012 9.16259 4.56704 9.26293 4.70995C9.36326 4.85287 9.51625 4.95007 9.68825 4.98018C9.86025 5.01029 10.0372 4.97084 10.1801 4.87051C27.2085 -6.5826 47.8445 11.7594 38.548 30.0286L37.3979 29.3641C43.8263 17.4681 34.8773 2.56595 21.3389 2.68358C11.3229 2.68349 3.17414 10.8384 3.17414 20.8623C3.01121 29.8541 10.3183 38.052 19.2503 38.921V40.2506C3.05054 38.5132 -3.98007 18.5896 7.56038 7.0743C7.68379 6.95078 10 5 10.1801 4.87051C10.18 4.69591 9.54698 3.91622 9.42348 3.7928C9.24888 3.79287 6.75242 6.02012 6.629 6.14362C-5.74108 18.4933 1.88496 39.8304 19.2505 41.5742V42.0194C19.2505 44.254 21.7447 45.7207 23.7031 44.5891L28.6919 41.7065C28.6545 44.0073 30.9577 45.8525 33.1445 44.5891L42.1269 39.399C42.8403 38.9868 42.214 37.828 41.4682 38.259L32.4858 43.4489C31.4067 44.0724 30.0086 43.2569 30.0086 42.0194V40.9456L34.5574 38.3173C36.5281 37.1787 36.4585 34.3326 34.5574 33.178L30.0086 30.5497V29.476C30.0086 28.2377 31.4068 27.423 32.4858 28.0465L43.34 34.3181C44.4175 34.9408 44.4181 36.5544 43.34 37.1773L41.4682 38.259C40.7545 38.6713 41.3816 39.8298 42.1269 39.399L43.9987 38.3174C45.943 37.194 45.9428 34.3013 43.9987 33.1779ZM33.8986 34.318C34.9729 34.9448 34.9821 36.5511 33.8986 37.1772L23.0443 43.4489C21.9654 44.0725 20.5672 43.2568 20.5672 42.0194V29.4758C20.5672 28.2375 21.9654 27.4229 23.0443 28.0463L33.8986 34.318ZM33.1444 26.9062C31.0216 25.6794 28.5968 27.4847 28.6918 29.7887L23.703 26.9061C21.7504 25.7778 19.2504 27.2314 19.2504 29.4758V37.5952C11.0318 36.7182 4.34095 29.1472 4.49106 20.862C4.49097 11.5644 12.0491 4.00006 21.3392 4.00006C33.8733 3.89173 42.1787 17.6726 36.2566 28.7044L33.1444 26.9062Z" fill="#E03021"/>
</g>
</g>
<defs>
<clipPath id="clip0_31_508">
<rect width="45" height="45" fill="white" transform="translate(0.5)"/>
</clipPath>
</defs>
</svg>
