<svg width="41" height="41" viewBox="0 0 41 41" fill="none" xmlns="http://www.w3.org/2000/svg">
<g id="Group">
<g id="Layer 2">
<path id="Vector" d="M10.6502 9.78184V4.41309C10.6502 4.24733 10.5843 4.08835 10.4671 3.97114C10.3499 3.85393 10.1909 3.78809 10.0252 3.78809C9.8594 3.78809 9.70043 3.85393 9.58322 3.97114C9.46601 4.08835 9.40016 4.24733 9.40016 4.41309V10.0381C9.39968 10.1203 9.41545 10.2019 9.44655 10.278C9.47765 10.3542 9.52348 10.4234 9.58141 10.4818L12.7064 13.6068C12.7645 13.6654 12.8336 13.7119 12.9098 13.7436C12.986 13.7754 13.0676 13.7917 13.1502 13.7917C13.2327 13.7917 13.3144 13.7754 13.3905 13.7436C13.4667 13.7119 13.5358 13.6654 13.5939 13.6068C13.6525 13.5487 13.699 13.4796 13.7307 13.4034C13.7624 13.3273 13.7788 13.2456 13.7788 13.1631C13.7788 13.0806 13.7624 12.9989 13.7307 12.9227C13.699 12.8466 13.6525 12.7774 13.5939 12.7193L10.6502 9.78184Z" fill="#E03021"/>
<path id="Vector_2" d="M36.2002 21.2881C36.3833 18.8943 36.0337 16.4897 35.1765 14.2471C34.3193 12.0046 32.9759 9.97979 31.2428 8.3184C29.5097 6.65702 27.43 5.40029 25.1532 4.63858C22.8764 3.87688 20.4592 3.62912 18.0752 3.91313C18.0358 3.91902 17.9978 3.93171 17.9627 3.95063C17.101 2.81634 16.0069 1.87924 14.7536 1.20209C13.5003 0.52494 12.1169 0.123359 10.6958 0.024239C9.27478 -0.0748814 7.84895 0.130746 6.51382 0.627353C5.17869 1.12396 3.96506 1.90008 2.9542 2.90376C1.94334 3.90743 1.15858 5.11549 0.652459 6.44705C0.146341 7.77861 -0.069452 9.20293 0.0195293 10.6246C0.108511 12.0464 0.500212 13.4327 1.16841 14.6907C1.8366 15.9488 2.76587 17.0496 3.89398 17.9194C3.57849 20.3188 3.80291 22.7584 4.55085 25.06C5.2988 27.3616 6.55139 29.4671 8.21714 31.2227C9.88288 32.9783 11.9197 34.3397 14.1789 35.2074C16.4381 36.0751 18.8625 36.4273 21.2752 36.2381C22.2109 37.4008 23.3811 38.3534 24.7095 39.0337C26.0378 39.714 27.4946 40.1068 28.9849 40.1865C30.4753 40.2663 31.9656 40.0312 33.359 39.4965C34.7524 38.9619 36.0175 38.1396 37.072 37.0834C38.1264 36.0272 38.9465 34.7607 39.4788 33.3665C40.0112 31.9722 40.2438 30.4814 40.1615 28.9912C40.0793 27.501 39.684 26.0449 39.0015 24.7177C38.319 23.3904 37.3645 22.2219 36.2002 21.2881ZM18.1502 10.6631H18.7752C18.6416 12.5451 17.9002 14.3327 16.6627 15.7569L16.244 15.3444C16.1244 15.242 15.9706 15.1885 15.8133 15.1946C15.656 15.2006 15.5068 15.2658 15.3955 15.3772C15.2842 15.4885 15.219 15.6377 15.2129 15.795C15.2068 15.9523 15.2603 16.1061 15.3627 16.2256L15.7752 16.6444C14.3468 17.8994 12.5468 18.6524 10.6502 18.7881V18.1631C10.6502 17.9974 10.5844 17.8384 10.4672 17.7212C10.35 17.604 10.191 17.5381 10.0252 17.5381C9.85947 17.5381 9.7005 17.604 9.58329 17.7212C9.46608 17.8384 9.40023 17.9974 9.40023 18.1631V18.7881C7.51827 18.6545 5.73065 17.9131 4.30648 16.6756L4.71898 16.2569C4.83999 16.14 4.90961 15.9799 4.91254 15.8117C4.91547 15.6435 4.85147 15.481 4.73461 15.36C4.61775 15.239 4.4576 15.1694 4.28941 15.1664C4.12121 15.1635 3.95874 15.2275 3.83773 15.3444L3.41898 15.7569C2.18149 14.3327 1.44012 12.5451 1.30648 10.6631H1.90023C2.06599 10.6631 2.22496 10.5973 2.34217 10.4801C2.45938 10.3629 2.52523 10.2039 2.52523 10.0381C2.52523 9.87237 2.45938 9.7134 2.34217 9.59619C2.22496 9.47898 2.06599 9.41313 1.90023 9.41313H1.27523C1.41766 7.52745 2.17017 5.73942 3.41898 4.31938L3.83773 4.73188C3.9573 4.83427 4.11109 4.88777 4.26839 4.8817C4.42569 4.87562 4.5749 4.81041 4.68621 4.69911C4.79752 4.5878 4.86273 4.43858 4.8688 4.28129C4.87488 4.12399 4.82137 3.97019 4.71898 3.85063L4.30648 3.43188C5.73065 2.19439 7.51827 1.45302 9.40023 1.31938V1.91313C9.40023 2.07889 9.46608 2.23786 9.58329 2.35507C9.7005 2.47228 9.85947 2.53813 10.0252 2.53813C10.191 2.53813 10.35 2.47228 10.4672 2.35507C10.5844 2.23786 10.6502 2.07889 10.6502 1.91313V1.28813C12.5322 1.42177 14.3198 2.16314 15.744 3.40063L15.3315 3.81938C15.2716 3.87724 15.2236 3.94634 15.1904 4.02273C15.1572 4.09912 15.1394 4.1813 15.1379 4.26458C15.1365 4.34786 15.1514 4.43061 15.182 4.50811C15.2125 4.58561 15.258 4.65634 15.3159 4.71625C15.3737 4.77617 15.4428 4.8241 15.5192 4.85731C15.5956 4.89052 15.6778 4.90836 15.7611 4.90981C15.8443 4.91127 15.9271 4.8963 16.0046 4.86577C16.0821 4.83524 16.1528 4.78974 16.2127 4.73188L16.6315 4.31938C17.8803 5.73942 18.6328 7.52745 18.7752 9.41313H18.1502C17.9845 9.41313 17.8255 9.47898 17.7083 9.59619C17.5911 9.7134 17.5252 9.87237 17.5252 10.0381C17.5252 10.2039 17.5911 10.3629 17.7083 10.4801C17.8255 10.5973 17.9845 10.6631 18.1502 10.6631ZM9.40023 30.6631C7.85229 29.109 6.66263 27.2353 5.91448 25.1734C5.16633 23.1114 4.87777 20.9108 5.06898 18.7256C6.57715 19.5908 8.28656 20.0434 10.0252 20.0381C12.6774 20.0381 15.2209 18.9846 17.0963 17.1092C18.9717 15.2338 20.0252 12.6903 20.0252 10.0381C20.0271 8.30501 19.5723 6.602 18.7065 5.10063C20.8109 4.91425 22.9309 5.1745 24.9278 5.86434C26.9246 6.55418 28.7532 7.65805 30.2938 9.10365C31.8344 10.5493 33.0523 12.304 33.8676 14.253C34.683 16.2019 35.0775 18.3011 35.0252 20.4131C33.342 19.3497 31.3913 18.7862 29.4002 18.7881C27.5038 18.7873 25.6418 19.294 24.0073 20.2557C22.3728 21.2173 21.0255 22.599 20.1052 24.2571C19.185 25.9153 18.7253 27.7895 18.7738 29.6853C18.8224 31.5811 19.3775 33.4293 20.3815 35.0381C18.3497 35.0947 16.3277 34.7359 14.4395 33.9836C12.5512 33.2313 10.8365 32.1014 9.40023 30.6631ZM29.4002 38.7881C27.546 38.7881 25.7335 38.2383 24.1918 37.2082C22.6501 36.178 21.4484 34.7138 20.7389 33.0008C20.0293 31.2877 19.8436 29.4027 20.2054 27.5842C20.5671 25.7656 21.46 24.0951 22.7711 22.784C24.0822 21.4729 25.7527 20.58 27.5713 20.2183C29.3898 19.8565 31.2748 20.0422 32.9879 20.7518C34.7009 21.4613 36.1651 22.6629 37.1953 24.2047C38.2254 25.7464 38.7752 27.5589 38.7752 29.4131C38.7752 31.8995 37.7875 34.2841 36.0294 36.0423C34.2712 37.8004 31.8866 38.7881 29.4002 38.7881Z" fill="#E03021"/>
<path id="Vector_3" d="M29.4002 21.2881C27.7932 21.2881 26.2223 21.7646 24.8861 22.6574C23.55 23.5502 22.5086 24.8191 21.8936 26.3038C21.2787 27.7884 21.1178 29.4221 21.4313 30.9982C21.7448 32.5743 22.5186 34.022 23.6549 35.1583C24.7912 36.2946 26.2389 37.0685 27.815 37.382C29.3911 37.6955 31.0248 37.5346 32.5095 36.9196C33.9941 36.3046 35.2631 35.2632 36.1558 33.9271C37.0486 32.5909 37.5252 31.0201 37.5252 29.4131C37.5252 28.3461 37.315 27.2896 36.9067 26.3038C36.4984 25.318 35.8999 24.4223 35.1454 23.6678C34.3909 22.9134 33.4952 22.3149 32.5095 21.9066C31.5237 21.4982 30.4671 21.2881 29.4002 21.2881ZM29.4002 36.2881C28.0404 36.2881 26.7112 35.8849 25.5806 35.1294C24.45 34.374 23.5688 33.3003 23.0485 32.044C22.5281 30.7878 22.392 29.4055 22.6573 28.0718C22.9225 26.7382 23.5773 25.5132 24.5388 24.5517C25.5003 23.5902 26.7253 22.9355 28.0589 22.6702C29.3925 22.4049 30.7749 22.5411 32.0311 23.0614C33.2873 23.5818 34.3611 24.463 35.1165 25.5935C35.8719 26.7241 36.2752 28.0533 36.2752 29.4131C36.2752 31.2364 35.5508 32.9851 34.2615 34.2744C32.9722 35.5638 31.2235 36.2881 29.4002 36.2881Z" fill="#E03021"/>
<path id="Vector_4" d="M29.4001 26.2881C29.7317 26.2881 30.0496 26.4198 30.284 26.6542C30.5185 26.8886 30.6501 27.2066 30.6501 27.5381C30.6501 27.7038 30.716 27.8628 30.8332 27.98C30.9504 28.0972 31.1094 28.1631 31.2751 28.1631C31.4409 28.1631 31.5999 28.0972 31.7171 27.98C31.8343 27.8628 31.9001 27.7038 31.9001 27.5381C31.8984 26.9852 31.7134 26.4486 31.3741 26.0121C31.0348 25.5755 30.5604 25.2638 30.0251 25.1256V24.4131C30.0251 24.2473 29.9593 24.0884 29.8421 23.9711C29.7249 23.8539 29.5659 23.7881 29.4001 23.7881C29.2344 23.7881 29.0754 23.8539 28.9582 23.9711C28.841 24.0884 28.7751 24.2473 28.7751 24.4131V25.1256C28.193 25.2836 27.6876 25.6468 27.3522 26.1482C27.0168 26.6496 26.874 27.2554 26.9501 27.8538C27.0262 28.4522 27.3162 29.0029 27.7664 29.4043C28.2167 29.8058 28.797 30.0309 29.4001 30.0381C29.6474 30.0381 29.889 30.1114 30.0946 30.2487C30.3002 30.3861 30.4604 30.5813 30.555 30.8097C30.6496 31.0381 30.6744 31.2895 30.6261 31.5319C30.5779 31.7744 30.4588 31.9972 30.284 32.172C30.1092 32.3468 29.8865 32.4658 29.644 32.5141C29.4015 32.5623 29.1502 32.5375 28.9218 32.4429C28.6934 32.3483 28.4982 32.1881 28.3608 31.9825C28.2235 31.777 28.1501 31.5353 28.1501 31.2881C28.1501 31.1223 28.0843 30.9634 27.9671 30.8461C27.8499 30.7289 27.6909 30.6631 27.5251 30.6631C27.3594 30.6631 27.2004 30.7289 27.0832 30.8461C26.966 30.9634 26.9001 31.1223 26.9001 31.2881C26.9019 31.8409 27.0869 32.3776 27.4262 32.8141C27.7655 33.2506 28.2398 33.5624 28.7751 33.7006V34.4131C28.7751 34.5788 28.841 34.7378 28.9582 34.855C29.0754 34.9722 29.2344 35.0381 29.4001 35.0381C29.5659 35.0381 29.7249 34.9722 29.8421 34.855C29.9593 34.7378 30.0251 34.5788 30.0251 34.4131V33.7006C30.6073 33.5425 31.1127 33.1793 31.4481 32.6779C31.7835 32.1766 31.9263 31.5708 31.8502 30.9724C31.7741 30.374 31.4841 29.8233 31.0338 29.4218C30.5836 29.0204 30.0033 28.7953 29.4001 28.7881C29.0686 28.7881 28.7507 28.6564 28.5163 28.422C28.2818 28.1876 28.1501 27.8696 28.1501 27.5381C28.1501 27.2066 28.2818 26.8886 28.5163 26.6542C28.7507 26.4198 29.0686 26.2881 29.4001 26.2881Z" fill="#E03021"/>
</g>
</g>
</svg>
