<svg width="54" height="50" viewBox="0 0 54 50" fill="none" xmlns="http://www.w3.org/2000/svg">
<g id="Group">
<path id="Vector" d="M47.5 34.1667C47.279 34.1667 47.067 34.2545 46.9107 34.4107C46.7545 34.567 46.6667 34.779 46.6667 35V47.5C46.6667 47.9592 46.2925 48.3333 45.8333 48.3333H2.5C2.04083 48.3333 1.66667 47.9592 1.66667 47.5V17.5C1.66667 17.0408 2.04083 16.6667 2.5 16.6667H21.6667C21.8877 16.6667 22.0996 16.5789 22.2559 16.4226C22.4122 16.2663 22.5 16.0543 22.5 15.8333C22.5 15.6123 22.4122 15.4004 22.2559 15.2441C22.0996 15.0878 21.8877 15 21.6667 15H2.5C1.12167 15 0 16.1217 0 17.5V47.5C0 48.8783 1.12167 50 2.5 50H45.8333C47.2117 50 48.3333 48.8783 48.3333 47.5V35C48.3333 34.779 48.2455 34.567 48.0893 34.4107C47.933 34.2545 47.721 34.1667 47.5 34.1667Z" fill="#E03021"/>
<path id="Vector_2" d="M21.275 27.6267C21.1489 27.5475 21.0039 27.5038 20.8551 27.5C20.7062 27.4961 20.5591 27.5324 20.4292 27.605C20.2991 27.677 20.1906 27.7825 20.1151 27.9106C20.0397 28.0387 19.9999 28.1847 20 28.3333V36.6667C20 36.8154 20.0398 36.9615 20.1153 37.0896C20.1908 37.2178 20.2993 37.3234 20.4294 37.3955C20.5595 37.4676 20.7065 37.5036 20.8552 37.4997C21.0039 37.4958 21.1489 37.4522 21.275 37.3733L27.9417 33.2067C28.0615 33.1318 28.1604 33.0276 28.2289 32.904C28.2974 32.7804 28.3333 32.6413 28.3333 32.5C28.3333 32.3587 28.2974 32.2196 28.2289 32.096C28.1604 31.9724 28.0615 31.8682 27.9417 31.7933L21.275 27.6267ZM21.6667 35.1633V29.8367L25.9275 32.5L21.6667 35.1633ZM47.5 25C47.279 25 47.067 25.0878 46.9107 25.2441C46.7545 25.4004 46.6667 25.6123 46.6667 25.8333V30.125C46.6667 30.975 45.975 31.6667 45.125 31.6667C44.7242 31.6667 44.3433 31.5133 44.055 31.2342L33.5175 21.0667C33.3585 20.9132 33.145 20.8291 32.924 20.833C32.703 20.8369 32.4927 20.9285 32.3392 21.0875C32.1857 21.2465 32.1016 21.46 32.1055 21.681C32.1094 21.902 32.201 22.1123 32.36 22.2658L42.8983 32.4333C43.4948 33.0122 44.2938 33.3351 45.125 33.3333C45.9756 33.3325 46.7912 32.9941 47.3927 32.3927C47.9941 31.7912 48.3325 30.9756 48.3333 30.125V25.8333C48.3333 25.6123 48.2455 25.4004 48.0893 25.2441C47.933 25.0878 47.721 25 47.5 25ZM27.5 22.5H30C30.221 22.5 30.433 22.4122 30.5893 22.2559C30.7455 22.0996 30.8333 21.8877 30.8333 21.6667C30.8333 21.4457 30.7455 21.2337 30.5893 21.0774C30.433 20.9211 30.221 20.8333 30 20.8333H27.5C27.0408 20.8333 26.6667 20.4592 26.6667 20V13.3333C26.6667 12.8742 27.0408 12.5 27.5 12.5H31.6667V16.6667C31.6667 16.8877 31.7545 17.0996 31.9107 17.2559C32.067 17.4122 32.279 17.5 32.5 17.5C32.721 17.5 32.933 17.4122 33.0893 17.2559C33.2455 17.0996 33.3333 16.8877 33.3333 16.6667V12.03L44.0508 2.07833C44.3428 1.8084 44.7274 1.66102 45.125 1.66667C45.975 1.66667 46.6667 2.35833 46.6667 3.20833V7.5C46.6667 7.72101 46.7545 7.93297 46.9107 8.08926C47.067 8.24554 47.279 8.33333 47.5 8.33333C47.721 8.33333 47.933 8.24554 48.0893 8.08926C48.2455 7.93297 48.3333 7.72101 48.3333 7.5V3.20833C48.3333 1.43917 46.8942 0 45.0992 0C44.2867 0 43.5117 0.304167 42.9158 0.856667L32.1725 10.8333H27.5C26.1217 10.8333 25 11.955 25 13.3333V20C25 21.3783 26.1217 22.5 27.5 22.5ZM50.1667 9.0075C50.0893 8.93013 49.9974 8.86876 49.8964 8.82688C49.7953 8.78501 49.6869 8.76346 49.5775 8.76346C49.4681 8.76346 49.3597 8.78501 49.2586 8.82688C49.1576 8.86876 49.0657 8.93013 48.9883 9.0075C48.911 9.08487 48.8496 9.17672 48.8077 9.27781C48.7658 9.3789 48.7443 9.48725 48.7443 9.59667C48.7443 9.70608 48.7658 9.81443 48.8077 9.91552C48.8496 10.0166 48.911 10.1085 48.9883 10.1858C52.5608 13.76 52.5608 19.5742 48.9883 23.1483C48.911 23.2257 48.8496 23.3176 48.8077 23.4186C48.7658 23.5197 48.7443 23.6281 48.7443 23.7375C48.7443 23.8469 48.7658 23.9553 48.8077 24.0564C48.8496 24.1574 48.911 24.2493 48.9883 24.3267C49.0657 24.404 49.1576 24.4654 49.2586 24.5073C49.3597 24.5492 49.4681 24.5707 49.5775 24.5707C49.6869 24.5707 49.7953 24.5492 49.8964 24.5073C49.9974 24.4654 50.0893 24.404 50.1667 24.3267C54.3883 20.1025 54.3883 13.2308 50.1667 9.0075Z" fill="#E03021"/>
<path id="Vector_3" d="M47.2202 22.2141C47.3296 22.2143 47.438 22.1927 47.5391 22.1508C47.6402 22.1089 47.7321 22.0475 47.8094 21.97C50.7319 19.0458 50.7319 14.2883 47.8094 11.3633C47.732 11.2859 47.6401 11.2246 47.539 11.1827C47.438 11.1408 47.3296 11.1193 47.2202 11.1193C47.1108 11.1193 47.0024 11.1408 46.9013 11.1827C46.8002 11.2246 46.7084 11.2859 46.631 11.3633C46.5537 11.4407 46.4923 11.5325 46.4504 11.6336C46.4085 11.7347 46.387 11.8431 46.387 11.9525C46.387 12.0619 46.4085 12.1702 46.4504 12.2713C46.4923 12.3724 46.5537 12.4643 46.631 12.5416C48.9044 14.8158 48.9044 18.5166 46.631 20.7908C46.5138 20.9071 46.4339 21.0557 46.4013 21.2176C46.3688 21.3795 46.3851 21.5475 46.4483 21.7C46.5115 21.8526 46.6186 21.983 46.756 22.0745C46.8935 22.1661 47.055 22.2147 47.2202 22.2141Z" fill="#E03021"/>
<path id="Vector_4" d="M44.2724 19.6133C44.3496 19.691 44.4414 19.7526 44.5425 19.7947C44.6436 19.8367 44.752 19.8584 44.8615 19.8584C44.971 19.8584 45.0795 19.8367 45.1806 19.7947C45.2817 19.7526 45.3735 19.691 45.4507 19.6133C46.2309 18.8313 46.669 17.7717 46.669 16.6671C46.669 15.5624 46.2309 14.5029 45.4507 13.7208C45.3733 13.6435 45.2815 13.5821 45.1804 13.5402C45.0793 13.4984 44.9709 13.4768 44.8615 13.4768C44.7521 13.4768 44.6438 13.4984 44.5427 13.5402C44.4416 13.5821 44.3497 13.6435 44.2724 13.7208C44.195 13.7982 44.1336 13.8901 44.0917 13.9912C44.0499 14.0922 44.0283 14.2006 44.0283 14.31C44.0283 14.4194 44.0499 14.5278 44.0917 14.6289C44.1336 14.73 44.195 14.8218 44.2724 14.8992C44.7403 15.3686 45.003 16.0043 45.003 16.6671C45.003 17.3299 44.7403 17.9656 44.2724 18.435C44.1161 18.5913 44.0284 18.8032 44.0284 19.0242C44.0284 19.2452 44.1161 19.4571 44.2724 19.6133Z" fill="#E03021"/>
</g>
</svg>
