<svg width="40" height="40" viewBox="0 0 40 40" fill="none" xmlns="http://www.w3.org/2000/svg">
<g id="Group">
<path id="Vector" d="M37.279 18.0647C37.023 10.8 32.1777 4.38333 25.2544 2.17133C25.1388 1.56156 24.8143 1.01114 24.3368 0.614827C23.8591 0.218511 23.2583 0.00109272 22.6377 0H17.3044C16.6838 0.00109272 16.0829 0.218511 15.6053 0.614827C15.1277 1.01114 14.8032 1.56156 14.6877 2.17133C7.76504 4.38333 2.91971 10.798 2.66304 18.0627C-1.24629 18.8847 -0.698292 24.6067 3.30437 24.6667H4.83771C5.21672 26.0099 5.7765 27.2955 6.50171 28.488L4.18371 31.588C4.08761 31.7167 4.04123 31.8759 4.05311 32.0361C4.065 32.1963 4.13434 32.3468 4.24837 32.46L7.98171 36.16C8.09628 36.2737 8.24822 36.342 8.40932 36.3522C8.57042 36.3624 8.72974 36.3137 8.85771 36.2153L11.9277 33.8553C13.2468 34.636 14.6724 35.2208 16.1597 35.5913L16.6837 39.424C16.7056 39.5836 16.7846 39.7299 16.9061 39.8358C17.0275 39.9417 17.1832 40 17.3444 40H22.5977C22.7587 39.9999 22.9143 39.9415 23.0356 39.8356C23.1569 39.7297 23.2358 39.5835 23.2577 39.424L23.7824 35.5907C25.3307 35.206 26.8113 34.5873 28.173 33.756L31.2717 36.0733C31.5377 36.2733 31.9104 36.2447 32.145 36.0093L35.845 32.276C35.9583 32.1614 36.0262 32.0097 36.0363 31.8489C36.0463 31.6881 35.9978 31.5291 35.8997 31.4013L33.5397 28.3253C34.2197 27.1789 34.7481 25.9491 35.1117 24.6667H36.6377C40.647 24.6087 41.1777 18.88 37.279 18.0647ZM14.6377 3.592V12.6667C14.643 13.536 15.9657 13.5407 15.971 12.6667V2.66667C15.971 1.93133 16.569 1.33333 17.3044 1.33333H22.6377C23.373 1.33333 23.971 1.93133 23.971 2.66667V12.6667C23.9824 13.5393 25.291 13.5453 25.3044 12.6667V3.592C31.4177 5.75333 35.683 11.498 35.957 18H3.98504C4.25837 11.498 8.52504 5.75333 14.6377 3.592ZM32.169 28.008C32.0955 28.1234 32.0593 28.2586 32.0653 28.3953C32.0712 28.5319 32.1191 28.6635 32.2024 28.772L34.4877 31.7507L31.6057 34.658L28.6037 32.4127C28.4941 32.3308 28.3619 32.2846 28.2252 32.2804C28.0884 32.2761 27.9536 32.3139 27.839 32.3887C26.3753 33.3442 24.7493 34.0243 23.041 34.3953C22.9077 34.4247 22.7866 34.4942 22.6941 34.5946C22.6016 34.695 22.5421 34.8214 22.5237 34.9567L22.0157 38.6667H17.9264L17.4184 34.9567C17.3999 34.8215 17.3403 34.6953 17.2478 34.595C17.1553 34.4948 17.0343 34.4253 16.901 34.396C15.2481 34.0353 13.671 33.3882 12.241 32.484C12.1257 32.4109 11.9908 32.3749 11.8544 32.381C11.718 32.3871 11.5867 32.4349 11.4784 32.518L8.50638 34.8033L5.59904 31.922C9.29638 26.9353 7.92438 29.8893 6.22771 24.6667H9.52771C13.4144 33.884 26.5304 33.88 30.4144 24.6667H33.721C33.3523 25.8436 32.8305 26.967 32.169 28.008ZM10.9877 24.6667H28.9544C25.329 32.116 14.6104 32.1133 10.9877 24.6667ZM38.0564 22.7453C37.6797 23.1211 37.1697 23.3325 36.6377 23.3333H3.30437C1.57304 23.3847 0.631708 21.1133 1.88571 19.9213C2.2623 19.5455 2.77236 19.3341 3.30437 19.3333H36.6377C38.369 19.282 39.3104 21.5533 38.0564 22.7453Z" fill="#E03021"/>
</g>
</svg>
