<svg width="40" height="40" viewBox="0 0 40 40" fill="none" xmlns="http://www.w3.org/2000/svg">
<g id="Frame" clip-path="url(#clip0_245_2522)">
<g id="Group">
<path id="Vector" d="M31.3657 26.4282C31.3657 25.1041 30.2977 23.9804 28.9179 23.9804H23.3345C23.0701 23.9804 22.8857 23.705 23.0025 23.4632C24.0363 21.3177 25.6427 20.05 25.8269 19.7693C26.2727 19.0912 26.5083 18.3063 26.5083 17.4995C26.5083 16.6075 26.2134 15.7258 25.6777 15.0157C25.1794 14.3578 24.1457 14.2367 23.5442 14.9578L21.1428 17.8121C20.5078 18.5667 19.7726 19.1863 18.9569 19.654C16.6867 20.9617 15.556 22.6367 15.0061 23.8145C14.8559 24.1407 14.5154 24.3516 14.1384 24.3516H13.2605C13.0162 23.3663 12.131 22.631 11.0711 22.631H0.625C0.45924 22.631 0.300269 22.6969 0.183058 22.8141C0.065848 22.9313 0 23.0903 0 23.256L0 38.1964C0 38.3621 0.065848 38.5211 0.183058 38.6383C0.300269 38.7555 0.45924 38.8214 0.625 38.8214H11.0711C12.1309 38.8214 13.0159 38.0862 13.2604 37.101H13.6089C14.2459 37.1008 14.8793 37.1962 15.4879 37.3843L18.8002 38.4048C19.5284 38.6297 20.2846 38.7439 21.0478 38.7439H27.357C28.365 38.7439 29.2314 38.0539 29.417 37.1017C29.511 36.6132 29.4217 36.1217 29.1847 35.7015C29.9859 35.3372 30.547 34.532 30.547 33.5944C30.547 33.079 30.3716 32.6074 30.0853 32.2225C30.8442 31.8053 31.3658 31.0064 31.3658 30.0794C31.3658 29.3542 31.0427 28.7089 30.5402 28.2603C31.0795 27.7832 31.3657 27.1229 31.3657 26.4282ZM12.0833 36.5591C12.0833 37.1173 11.6291 37.5713 11.0711 37.5713H1.25V23.8809H11.0711C11.6293 23.8809 12.0833 24.335 12.0833 24.8931V36.5591ZM24.9827 27.6315C24.8169 27.6315 24.6579 27.6974 24.5407 27.8146C24.4235 27.9318 24.3577 28.0908 24.3577 28.2565C24.3577 28.4223 24.4235 28.5812 24.5407 28.6985C24.6579 28.8157 24.8169 28.8815 24.9827 28.8815H28.8547C29.4513 28.8815 30.0041 29.2895 30.0994 29.8785C30.2212 30.6307 29.6438 31.283 28.9178 31.283H24.9827C24.8169 31.283 24.6579 31.3488 24.5407 31.4661C24.4235 31.5833 24.3577 31.7422 24.3577 31.908C24.3577 32.0738 24.4235 32.2327 24.5407 32.3499C24.6579 32.4672 24.8169 32.533 24.9827 32.533H28.1799C28.7085 32.533 29.1981 32.8946 29.2825 33.4164C29.3903 34.0832 28.8789 34.6613 28.2355 34.6613H24.9827C24.8169 34.6613 24.6579 34.7271 24.5407 34.8443C24.4235 34.9615 24.3577 35.1205 24.3577 35.2863C24.3577 35.452 24.4235 35.611 24.5407 35.7282C24.6579 35.8454 24.8169 35.9113 24.9827 35.9113H27.417C27.5332 35.9111 27.648 35.9368 27.7532 35.9864C27.8583 36.036 27.9511 36.1083 28.0248 36.1982C28.178 36.3834 28.2366 36.6205 28.1897 36.8641C28.1195 37.2232 27.7616 37.4939 27.3568 37.4939H21.0477C20.4121 37.4939 19.7801 37.3988 19.1727 37.2117L15.8541 36.1893C15.1267 35.9651 14.3699 35.8512 13.6088 35.8512H13.3332V25.6015H14.1383C15.0013 25.6015 15.7874 25.1053 16.1399 24.3406C16.6123 23.3286 17.5929 21.8821 19.5795 20.738C20.5219 20.1975 21.3694 19.484 22.0991 18.6167L24.502 15.7607C24.5517 15.7007 24.6366 15.7117 24.6802 15.7695C25.0583 16.2703 25.2582 16.8687 25.2582 17.4996C25.2582 18.2415 24.9042 18.9255 24.3932 19.4502C23.2741 20.5989 22.4502 21.7344 21.8836 22.9056C21.3635 23.9806 22.1402 25.2306 23.3344 25.2306H28.9177C29.5911 25.2306 30.1155 25.7806 30.1155 26.4283C30.1155 27.0815 29.5813 27.6316 28.9177 27.6316H24.9826V27.6315H24.9827ZM20.7716 8.33151C20.8401 8.39815 20.8913 8.48044 20.9209 8.57131C20.9505 8.66217 20.9576 8.75888 20.9415 8.85308L20.6805 10.3716C20.4235 11.8731 22.0019 13.02 23.3502 12.3085L24.71 11.5917C24.7946 11.5471 24.8889 11.5238 24.9845 11.5239C25.0802 11.5239 25.1744 11.5473 25.259 11.592L26.6145 12.3079C27.9594 13.0189 29.5406 11.876 29.2854 10.375L29.0272 8.85214V8.85183C29.0112 8.75796 29.0183 8.66162 29.0478 8.5711C29.0773 8.48057 29.1284 8.39857 29.1966 8.33214L30.2937 7.26245C31.384 6.19925 30.7816 4.34706 29.2756 4.12683L27.7544 3.90464C27.6599 3.89094 27.5703 3.85448 27.4931 3.79839C27.4159 3.7423 27.3535 3.66827 27.3113 3.58269L26.6317 2.20425C25.9564 0.835732 24.0086 0.839561 23.3352 2.20151L22.6507 3.58362C22.6085 3.66896 22.5462 3.74276 22.4692 3.79868C22.3922 3.85461 22.3027 3.89097 22.2085 3.90464L20.6897 4.1262C19.1822 4.34644 18.5813 6.20159 19.6735 7.26339L20.7716 8.33151ZM20.8705 5.36339L22.3893 5.14151C22.6836 5.09859 22.9632 4.98486 23.2039 4.81009C23.4446 4.63533 23.6392 4.40475 23.7712 4.13815L24.4557 2.75605C24.6712 2.3198 25.2948 2.31894 25.5106 2.7573L26.1905 4.13573C26.3224 4.40296 26.5171 4.63416 26.7581 4.80942C26.9991 4.98468 27.2791 5.09875 27.5739 5.14183L29.0952 5.36401C29.5775 5.43409 29.7717 6.0255 29.4211 6.36769L28.324 7.43737C28.1111 7.64506 27.9518 7.90127 27.8597 8.18404C27.7676 8.4668 27.7455 8.76768 27.7952 9.06089L28.0534 10.584C28.1355 11.0656 27.6298 11.4316 27.1986 11.2025L25.843 10.4866C25.5787 10.3468 25.2842 10.2737 24.9851 10.2736C24.6861 10.2735 24.3915 10.3464 24.127 10.486L22.7675 11.2025C22.3345 11.4313 21.8308 11.064 21.9127 10.5826L22.1737 9.06409C22.224 8.76995 22.202 8.46797 22.1096 8.18421C22.0172 7.90045 21.8572 7.64344 21.6433 7.43534L20.5452 6.36698C20.1955 6.02776 20.3854 5.43394 20.8705 5.36339ZM39.5443 14.8014C40.437 13.9311 39.9439 12.4142 38.7105 12.2343L37.6073 12.0735C37.5664 12.0675 37.5275 12.0517 37.4941 12.0273C37.4606 12.003 37.4336 11.9708 37.4154 11.9337L36.9225 10.934C36.3695 9.81354 34.7752 9.81667 34.2235 10.9319L33.727 11.9344C33.7087 11.9714 33.6817 12.0033 33.6483 12.0275C33.6149 12.0517 33.5761 12.0674 33.5353 12.0732L32.4342 12.2341C31.2002 12.4139 30.7073 13.9325 31.6017 14.8025L32.398 15.577C32.4277 15.6059 32.45 15.6416 32.4629 15.6811C32.4757 15.7205 32.4788 15.7625 32.4718 15.8034L32.2829 16.9047C32.0733 18.13 33.3625 19.0732 34.4683 18.4907L35.4546 17.9707C35.4913 17.9512 35.5322 17.941 35.5738 17.941C35.6153 17.941 35.6563 17.9512 35.693 17.9707L36.6756 18.4899C37.777 19.0728 39.0715 18.1371 38.8625 16.9073L38.6751 15.8028C38.6683 15.7621 38.6715 15.7203 38.6842 15.6811C38.697 15.6418 38.7191 15.6062 38.7486 15.5773L39.5443 14.8014ZM38.6715 13.9067L37.8756 14.6828C37.7015 14.8529 37.5712 15.0626 37.4958 15.2941C37.4205 15.5255 37.4023 15.7718 37.4429 16.0118V16.0121L37.6302 17.1166C37.6662 17.3267 37.4472 17.4829 37.2595 17.3845L36.2768 16.8653C36.0603 16.751 35.8192 16.6912 35.5744 16.6911C35.3295 16.691 35.0884 16.7506 34.8718 16.8647L33.8855 17.3847C33.6966 17.4839 33.4793 17.3247 33.5152 17.1158L33.7041 16.0142C33.7453 15.7734 33.7272 15.5263 33.6516 15.294C33.5759 15.0618 33.4449 14.8515 33.2698 14.6811L32.4733 13.9063C32.3201 13.7573 32.4056 13.5015 32.6145 13.4707L33.7159 13.3102C33.9568 13.2749 34.1856 13.1818 34.3826 13.0387C34.5797 12.8956 34.739 12.7068 34.8471 12.4886L35.3437 11.4861C35.4372 11.2972 35.7066 11.2947 35.8011 11.4867L36.294 12.4864C36.402 12.7053 36.5615 12.8946 36.7588 13.0381C36.9561 13.1816 37.1854 13.2751 37.4268 13.3104L38.53 13.4713C38.7407 13.5021 38.8238 13.7581 38.6715 13.9067Z" fill="#E03021"/>
<path id="Vector_2" d="M11.2187 15.5767C11.2485 15.6056 11.2708 15.6414 11.2836 15.6808C11.2965 15.7203 11.2996 15.7622 11.2926 15.8031L11.1037 16.9045C10.8928 18.1373 12.188 19.0704 13.2891 18.4905L14.2754 17.9705C14.3121 17.951 14.353 17.9408 14.3946 17.9408C14.4361 17.9408 14.477 17.951 14.5137 17.9705L15.4964 18.4896C16.5976 19.0729 17.8923 18.1368 17.6833 16.9071L17.4958 15.8026C17.4891 15.7619 17.4922 15.7201 17.505 15.6808C17.5178 15.6416 17.5399 15.606 17.5694 15.5771L18.3649 14.8013C19.2576 13.931 18.7645 12.4142 17.5312 12.2342L16.428 12.0734C16.387 12.0674 16.3481 12.0516 16.3147 12.0272C16.2813 12.0029 16.2542 11.9707 16.236 11.9336L15.7431 10.9339C15.1901 9.81346 13.5958 9.81658 13.0441 10.9318L12.5476 11.9343C12.5293 11.9713 12.5023 12.0032 12.4689 12.0274C12.4355 12.0516 12.3967 12.0673 12.3559 12.0731L11.2548 12.234C10.0208 12.4138 9.52796 13.9324 10.4223 14.8024L11.2187 15.5767ZM11.4354 13.4709L12.5367 13.3103C12.7777 13.2751 13.0065 13.182 13.2035 13.0389C13.4006 12.8958 13.5599 12.707 13.668 12.4888L14.1645 11.4863C14.258 11.2974 14.5274 11.2949 14.6219 11.4869L15.1148 12.4866C15.2228 12.7054 15.3823 12.8947 15.5796 13.0383C15.777 13.1818 16.0062 13.2752 16.2476 13.3106L17.3508 13.4714C17.5613 13.502 17.6445 13.7581 17.4921 13.9066L16.6962 14.6827C16.5221 14.8528 16.3918 15.0625 16.3164 15.294C16.2411 15.5255 16.2229 15.7717 16.2635 16.0117V16.0121L16.4509 17.1165C16.4869 17.3271 16.2671 17.4826 16.0801 17.3844L15.0975 16.8653C14.881 16.7509 14.6399 16.6911 14.3951 16.691C14.1502 16.6909 13.9091 16.7505 13.6925 16.8646L12.7062 17.3846C12.5166 17.4839 12.3 17.3242 12.3359 17.1157L12.5248 16.0141C12.566 15.7733 12.5479 15.5262 12.4723 15.2939C12.3966 15.0617 12.2656 14.8514 12.0905 14.681L11.294 13.9063C11.1408 13.7573 11.2265 13.5016 11.4354 13.4709Z" fill="#E03021"/>
</g>
</g>
<defs>
<clipPath id="clip0_245_2522">
<rect width="40" height="40" fill="white"/>
</clipPath>
</defs>
</svg>
