<svg width="40" height="40" viewBox="0 0 40 40" fill="none" xmlns="http://www.w3.org/2000/svg">
<g id="Frame">
<g id="Group">
<path id="Vector" d="M32.3573 20.5102H26.9715C26.7262 20.5102 26.5271 20.3111 26.5271 20.0658C26.5271 19.8204 26.7262 19.6213 26.9715 19.6213H32.3573C32.6027 19.6213 32.8018 19.8204 32.8018 20.0658C32.8018 20.3111 32.6035 20.5102 32.3573 20.5102Z" fill="#E03021"/>
<path id="Vector_2" d="M32.3572 28.416H30.5128C29.839 28.416 29.3217 28.2284 28.9741 27.8587C28.3679 27.2124 28.4319 26.1973 28.4879 25.3022C28.5039 25.0507 28.519 24.8133 28.519 24.5964V21.984C28.519 20.7324 27.6337 20.5369 27.4586 20.5102H26.9706C26.7252 20.5102 26.5261 20.3111 26.5261 20.0658C26.5261 19.8204 26.7252 19.6213 26.9706 19.6213H27.487C27.5021 19.6213 27.5163 19.6222 27.5315 19.6231C28.1803 19.688 29.407 20.2649 29.407 21.984V24.5964C29.407 24.8409 29.3901 25.104 29.3741 25.3582C29.3288 26.0738 29.2781 26.8853 29.6212 27.2507C29.7963 27.4365 30.087 27.5271 30.5119 27.5271H32.3563C32.6017 27.5271 32.8008 27.7262 32.8008 27.9716C32.8008 28.2169 32.6035 28.416 32.3572 28.416Z" fill="#E03021"/>
<path id="Vector_3" d="M27.488 20.5102H26.9715C26.7262 20.5102 26.5271 20.3111 26.5271 20.0658C26.5271 19.8205 26.7262 19.6214 26.9715 19.6214H27.4604C27.6249 19.5974 28.5191 19.4054 28.5191 18.1476V15.5351C28.5191 15.3182 28.504 15.0809 28.488 14.8294C28.432 13.9334 28.368 12.9182 28.9742 12.2729C29.3209 11.9031 29.8391 11.7156 30.5129 11.7156H32.3573C32.6027 11.7156 32.8018 11.9147 32.8018 12.16C32.8018 12.4054 32.6027 12.6045 32.3573 12.6045H30.5129C30.0889 12.6045 29.7973 12.6951 29.6222 12.8809C29.2791 13.2462 29.3298 14.0578 29.3751 14.7734C29.3911 15.0276 29.408 15.2907 29.408 15.5351V18.1476C29.408 19.8667 28.1813 20.4436 27.5324 20.5085C27.5173 20.5094 27.5031 20.5102 27.488 20.5102ZM37.8498 23.8347H33.7307C32.7289 23.8347 31.9129 23.0196 31.9129 22.0169V18.1147C31.9129 17.1129 32.728 16.2969 33.7307 16.2969H37.8498C38.8515 16.2969 39.6675 17.112 39.6675 18.1147V22.0169C39.6675 23.0196 38.8524 23.8347 37.8498 23.8347ZM33.7307 17.1858C33.2187 17.1858 32.8018 17.6027 32.8018 18.1147V22.0169C32.8018 22.5289 33.2187 22.9458 33.7307 22.9458H37.8498C38.3618 22.9458 38.7787 22.5289 38.7787 22.0169V18.1147C38.7787 17.6027 38.3618 17.1858 37.8498 17.1858H33.7307Z" fill="#E03021"/>
<path id="Vector_4" d="M37.8498 15.9289H33.7307C32.7289 15.9289 31.9129 15.1138 31.9129 14.1111V10.2089C31.9129 9.20711 32.728 8.39111 33.7307 8.39111H37.8498C38.8515 8.39111 39.6675 9.20622 39.6675 10.2089V14.1111C39.6675 15.1138 38.8524 15.9289 37.8498 15.9289ZM33.7307 9.28C33.2187 9.28 32.8018 9.69689 32.8018 10.2089V14.1111C32.8018 14.6231 33.2187 15.04 33.7307 15.04H37.8498C38.3618 15.04 38.7787 14.6231 38.7787 14.1111V10.2089C38.7787 9.69689 38.3618 9.28 37.8498 9.28H33.7307ZM37.8498 31.7404H33.7307C32.7289 31.7404 31.9129 30.9253 31.9129 29.9227V26.0204C31.9129 25.0187 32.728 24.2027 33.7307 24.2027H37.8498C38.8515 24.2027 39.6675 25.0178 39.6675 26.0204V29.9227C39.6675 30.9253 38.8524 31.7404 37.8498 31.7404ZM33.7307 25.0916C33.2187 25.0916 32.8018 25.5084 32.8018 26.0204V29.9227C32.8018 30.4347 33.2187 30.8516 33.7307 30.8516H37.8498C38.3618 30.8516 38.7787 30.4347 38.7787 29.9227V26.0204C38.7787 25.5084 38.3618 25.0916 37.8498 25.0916H33.7307ZM21.0027 27.4587H19.0435C18.6071 27.4587 18.248 27.1262 18.1689 26.6507L17.9715 25.4613C17.866 25.4212 17.7616 25.3779 17.6587 25.3316L16.6782 26.0338C16.2862 26.3147 15.7964 26.2951 15.488 25.9867L14.1031 24.6018C13.7947 24.2933 13.7751 23.8036 14.056 23.4116L14.7582 22.4311C14.7118 22.3278 14.6686 22.2232 14.6284 22.1173L13.4391 21.9209C12.9635 21.8418 12.6311 21.4827 12.6311 21.0462V19.0871C12.6311 18.6507 12.9635 18.2916 13.4391 18.2124L14.6284 18.0151C14.6684 17.9093 14.712 17.8053 14.7582 17.7022L14.056 16.7218C13.7751 16.3298 13.7947 15.84 14.1031 15.5316L15.4889 14.1467C15.7973 13.8382 16.2871 13.8187 16.6782 14.0996L17.6587 14.8018C17.7618 14.7556 17.8667 14.712 17.9715 14.672L18.1689 13.4818C18.248 13.0062 18.6071 12.6738 19.0435 12.6738H21.0027C21.4391 12.6738 21.7982 13.0062 21.8773 13.4818L22.0747 14.672C22.1804 14.712 22.2844 14.7556 22.3875 14.8018L23.368 14.0996C23.76 13.8187 24.2498 13.8382 24.5573 14.1467L25.9422 15.5324C26.2507 15.8409 26.2702 16.3298 25.9893 16.7227L25.2871 17.7031C25.3333 17.8062 25.3769 17.9111 25.4169 18.016L26.6062 18.2133C27.0818 18.2924 27.4142 18.6516 27.4142 19.088V21.0471C27.4142 21.4836 27.0818 21.8436 26.6062 21.9218L25.416 22.1191C25.3759 22.2247 25.3326 22.329 25.2862 22.432L25.9884 23.4124C26.2693 23.8044 26.2498 24.2942 25.9413 24.6027L24.5564 25.9876C24.248 26.296 23.7582 26.3156 23.3671 26.0347L22.3867 25.3324C22.2834 25.3788 22.1787 25.4221 22.0729 25.4622L21.8755 26.6516C21.7982 27.1262 21.4391 27.4587 21.0027 27.4587ZM19.0667 26.5698H20.9787C20.9858 26.5573 20.9947 26.536 21 26.5058L21.24 25.0578C21.2667 24.8942 21.3831 24.7591 21.5404 24.7076C21.7776 24.63 22.0086 24.5343 22.2311 24.4213C22.3037 24.3845 22.385 24.3682 22.4662 24.3743C22.5473 24.3804 22.6253 24.4087 22.6915 24.456L23.8853 25.3111C23.9102 25.3289 23.9315 25.3378 23.9458 25.3413L25.2978 23.9893C25.2911 23.9677 25.2809 23.9472 25.2675 23.9289L24.4124 22.7342C24.3649 22.6681 24.3365 22.5901 24.3304 22.5089C24.3243 22.4276 24.3407 22.3463 24.3778 22.2738C24.4907 22.0516 24.5875 21.8187 24.664 21.5831C24.7155 21.4258 24.8507 21.3093 25.0142 21.2827L26.4631 21.0427C26.4933 21.0373 26.5147 21.0284 26.5271 21.0213V19.1084C26.5147 19.1013 26.4933 19.0924 26.4631 19.0871L25.0151 18.8471C24.9348 18.8339 24.8597 18.7988 24.798 18.7459C24.7362 18.6929 24.6902 18.624 24.6649 18.5467C24.5872 18.3095 24.4915 18.0786 24.3787 17.856C24.3416 17.7835 24.3252 17.7021 24.3314 17.6209C24.3375 17.5397 24.3658 17.4617 24.4133 17.3956L25.2684 16.2018C25.2862 16.1769 25.2951 16.1556 25.2987 16.1413L23.9467 14.7893C23.9333 14.7929 23.912 14.8018 23.8862 14.8196L22.6915 15.6747C22.6254 15.7222 22.5474 15.7505 22.4662 15.7566C22.385 15.7628 22.3036 15.7464 22.2311 15.7093C22.0089 15.5964 21.776 15.4996 21.5404 15.4231C21.4631 15.3978 21.3942 15.3518 21.3412 15.29C21.2883 15.2283 21.2532 15.1532 21.24 15.0729L21 13.624C20.9947 13.5938 20.9858 13.5724 20.9787 13.56H19.0667C19.0595 13.5724 19.0507 13.5938 19.0453 13.624L18.8053 15.0729C18.7921 15.1532 18.7571 15.2283 18.7041 15.29C18.6511 15.3518 18.5822 15.3978 18.5049 15.4231C18.2677 15.5009 18.0368 15.5965 17.8142 15.7093C17.6667 15.784 17.4889 15.7707 17.3538 15.6747L16.1591 14.8196C16.1342 14.8018 16.1129 14.7929 16.0987 14.7893L14.7467 16.1413C14.7502 16.1547 14.7591 16.1769 14.7769 16.2018L15.632 17.3956C15.6795 17.4617 15.7079 17.5397 15.714 17.6209C15.7201 17.7021 15.7037 17.7835 15.6667 17.856C15.5538 18.0782 15.4569 18.3111 15.3804 18.5467C15.3551 18.624 15.3091 18.6929 15.2473 18.7459C15.1856 18.7988 15.1105 18.8339 15.0302 18.8471L13.5813 19.0871C13.5511 19.0924 13.5298 19.1013 13.5173 19.1084V21.0204C13.5298 21.0276 13.5511 21.0364 13.5813 21.0418L15.0293 21.2818C15.1929 21.3084 15.328 21.4249 15.3795 21.5822C15.4569 21.8187 15.5538 22.0516 15.6658 22.2729C15.7413 22.4204 15.7271 22.5982 15.6311 22.7333L14.776 23.9271C14.7582 23.952 14.7493 23.9733 14.7458 23.9876L16.0978 25.3396C16.1111 25.336 16.1324 25.3271 16.1582 25.3093L17.3529 24.4542C17.419 24.4067 17.497 24.3783 17.5782 24.3722C17.6595 24.3661 17.7408 24.3825 17.8133 24.4196C18.0358 24.5326 18.2668 24.6283 18.504 24.7058C18.6613 24.7573 18.7778 24.8924 18.8044 25.056L19.0444 26.5049C19.0507 26.536 19.0595 26.5573 19.0667 26.5698Z" fill="#E03021"/>
<path id="Vector_5" d="M20.0231 24.0747C17.8124 24.0747 16.0142 22.2764 16.0142 20.0658C16.0142 17.8551 17.8124 16.0569 20.0231 16.0569C22.2337 16.0569 24.0319 17.8551 24.0319 20.0658C24.0319 22.2764 22.2337 24.0747 20.0231 24.0747ZM20.0231 16.9458C18.3022 16.9458 16.9031 18.3458 16.9031 20.0658C16.9031 21.7858 18.3031 23.1858 20.0231 23.1858C21.7431 23.1858 23.1431 21.7858 23.1431 20.0658C23.1431 18.3458 21.7439 16.9458 20.0231 16.9458ZM13.0746 20.5102H7.68883C7.4435 20.5102 7.24438 20.3111 7.24438 20.0658C7.24438 19.8204 7.4435 19.6213 7.68883 19.6213H13.0746C13.3199 19.6213 13.5191 19.8204 13.5191 20.0658C13.5191 20.3111 13.3199 20.5102 13.0746 20.5102Z" fill="#E03021"/>
<path id="Vector_6" d="M9.53327 28.416H7.68883C7.4435 28.416 7.24438 28.2169 7.24438 27.9716C7.24438 27.7262 7.4435 27.5271 7.68883 27.5271H9.53327C9.95727 27.5271 10.2488 27.4365 10.4239 27.2507C10.7671 26.8853 10.7164 26.0738 10.6711 25.3582C10.6551 25.104 10.6382 24.8409 10.6382 24.5964V21.984C10.6382 20.2649 11.8648 19.688 12.5137 19.6231C12.5288 19.6213 12.5431 19.6213 12.5582 19.6213H13.0746C13.3199 19.6213 13.5191 19.8204 13.5191 20.0658C13.5191 20.3111 13.3199 20.5102 13.0746 20.5102H12.5857C12.4213 20.5342 11.5262 20.7262 11.5262 21.984V24.5964C11.5262 24.8133 11.5413 25.0507 11.5573 25.3022C11.6133 26.1982 11.6773 27.2133 11.0711 27.8587C10.7244 28.2284 10.2071 28.416 9.53327 28.416Z" fill="#E03021"/>
<path id="Vector_7" d="M13.0747 20.5102H12.5582C12.5431 20.5102 12.5289 20.5093 12.5138 20.5075C11.8649 20.4426 10.6382 19.8657 10.6382 18.1466V15.5342C10.6382 15.2897 10.6551 15.0266 10.6711 14.7724C10.7164 14.0568 10.7671 13.2453 10.424 12.8799C10.2489 12.6942 9.95822 12.6035 9.53333 12.6035H7.68888C7.44355 12.6035 7.24444 12.4044 7.24444 12.159C7.24444 11.9137 7.44355 11.7146 7.68888 11.7146H9.53333C10.2071 11.7146 10.7244 11.9022 11.072 12.2719C11.6782 12.9182 11.6142 13.9333 11.5582 14.8284C11.5422 15.0799 11.5271 15.3173 11.5271 15.5342V18.1466C11.5271 19.3982 12.4124 19.5937 12.5876 19.6204H13.0756C13.3209 19.6204 13.52 19.8195 13.52 20.0648C13.52 20.3102 13.32 20.5102 13.0747 20.5102ZM6.31555 23.8346H2.19644C1.19466 23.8346 0.378662 23.0195 0.378662 22.0168V18.1146C0.378662 17.1128 1.19377 16.2968 2.19644 16.2968H6.31555C7.31733 16.2968 8.13333 17.1119 8.13333 18.1146V22.0168C8.13333 23.0195 7.31733 23.8346 6.31555 23.8346ZM2.19644 17.1857C1.68444 17.1857 1.26755 17.6026 1.26755 18.1146V22.0168C1.26755 22.5288 1.68444 22.9457 2.19644 22.9457H6.31555C6.82755 22.9457 7.24444 22.5288 7.24444 22.0168V18.1146C7.24444 17.6026 6.82755 17.1857 6.31555 17.1857H2.19644Z" fill="#E03021"/>
<path id="Vector_8" d="M6.31555 15.9289H2.19644C1.19466 15.9289 0.378662 15.1138 0.378662 14.1111V10.2089C0.378662 9.20711 1.19377 8.39111 2.19644 8.39111H6.31555C7.31733 8.39111 8.13333 9.20622 8.13333 10.2089V14.1111C8.13333 15.1138 7.31733 15.9289 6.31555 15.9289ZM2.19644 9.28C1.68444 9.28 1.26755 9.69689 1.26755 10.2089V14.1111C1.26755 14.6231 1.68444 15.04 2.19644 15.04H6.31555C6.82755 15.04 7.24444 14.6231 7.24444 14.1111V10.2089C7.24444 9.69689 6.82755 9.28 6.31555 9.28H2.19644ZM6.31555 31.7404H2.19644C1.19466 31.7404 0.378662 30.9253 0.378662 29.9227V26.0204C0.378662 25.0187 1.19377 24.2027 2.19644 24.2027H6.31555C7.31733 24.2027 8.13333 25.0178 8.13333 26.0204V29.9227C8.13333 30.9253 7.31733 31.7404 6.31555 31.7404ZM2.19644 25.0916C1.68444 25.0916 1.26755 25.5084 1.26755 26.0204V29.9227C1.26755 30.4347 1.68444 30.8516 2.19644 30.8516H6.31555C6.82755 30.8516 7.24444 30.4347 7.24444 29.9227V26.0204C7.24444 25.5084 6.82755 25.0916 6.31555 25.0916H2.19644Z" fill="#E03021"/>
</g>
</g>
</svg>
