<svg width="46" height="66" viewBox="0 0 46 66" fill="none" xmlns="http://www.w3.org/2000/svg">
<path d="M45.1775 13.7399L32.7817 1.34404C32.5083 1.07053 32.1374 0.916831 31.7507 0.916748H1.85482C1.46804 0.916748 1.09711 1.07039 0.823621 1.34388C0.55013 1.61737 0.396484 1.98831 0.396484 2.37508V63.6251C0.396484 64.0119 0.55013 64.3828 0.823621 64.6563C1.09711 64.9298 1.46804 65.0834 1.85482 65.0834H44.1465C44.5333 65.0834 44.9042 64.9298 45.1777 64.6563C45.4512 64.3828 45.6048 64.0119 45.6048 63.6251V14.7709C45.6047 14.3842 45.451 14.0133 45.1775 13.7399ZM33.209 5.8955L40.6253 13.3126H33.209V5.8955ZM3.31315 62.1668V3.83342H30.2923V14.7709C30.2923 15.1577 30.446 15.5286 30.7195 15.8021C30.9929 16.0756 31.3639 16.2292 31.7507 16.2292H42.6882V62.1668H3.31315Z" fill="#616161"/>
</svg>
