<svg width="50" height="50" viewBox="0 0 50 50" fill="none" xmlns="http://www.w3.org/2000/svg">
<g id="Frame" clip-path="url(#clip0_155_2399)">
<g id="Group">
<path id="Vector" d="M36.3604 49.9999C36.0104 49.9999 35.6521 49.9562 35.2979 49.8624L3.0833 41.2353C2.02119 40.9406 1.11733 40.2405 0.566353 39.2858C0.0153755 38.3312 -0.138642 37.1983 0.137466 36.1312L4.20205 20.9812C4.27697 20.7184 4.45213 20.4956 4.6898 20.3607C4.92747 20.2259 5.20859 20.1899 5.47259 20.2604C5.73658 20.3309 5.9623 20.5023 6.10109 20.7377C6.23988 20.9731 6.28063 21.2535 6.21455 21.5187L2.15205 36.6645C1.86247 37.7687 2.52497 38.9187 3.63122 39.2249L35.8333 47.8478C36.364 47.9891 36.929 47.914 37.4044 47.639C37.8798 47.364 38.2266 46.9116 38.3687 46.3812L39.9958 40.352C40.0314 40.2199 40.0926 40.096 40.176 39.9876C40.2595 39.8791 40.3634 39.7881 40.482 39.7198C40.6006 39.6515 40.7315 39.6073 40.8672 39.5895C41.0029 39.5718 41.1407 39.581 41.2729 39.6166C41.405 39.6522 41.5289 39.7134 41.6373 39.7968C41.7458 39.8803 41.8368 39.9842 41.9051 40.1028C41.9734 40.2214 42.0176 40.3523 42.0354 40.488C42.0531 40.6237 42.0439 40.7615 42.0083 40.8937L40.3833 46.9145C40.1464 47.8002 39.6236 48.5828 38.8961 49.1408C38.1686 49.6987 37.2772 50.0008 36.3604 49.9999Z" fill="#E03021"/>
<path id="Vector_2" d="M45.8333 37.5H12.4999C10.202 37.5 8.33325 35.6312 8.33325 33.3333V8.33329C8.33325 6.03538 10.202 4.16663 12.4999 4.16663H45.8333C48.1312 4.16663 49.9999 6.03538 49.9999 8.33329V33.3333C49.9999 35.6312 48.1312 37.5 45.8333 37.5ZM12.4999 6.24996C11.352 6.24996 10.4166 7.18538 10.4166 8.33329V33.3333C10.4166 34.4812 11.352 35.4166 12.4999 35.4166H45.8333C46.9812 35.4166 47.9166 34.4812 47.9166 33.3333V8.33329C47.9166 7.18538 46.9812 6.24996 45.8333 6.24996H12.4999Z" fill="#E03021"/>
<path id="Vector_3" d="M18.7499 18.75C16.4519 18.75 14.5832 16.8812 14.5832 14.5833C14.5832 12.2854 16.4519 10.4166 18.7499 10.4166C21.0478 10.4166 22.9165 12.2854 22.9165 14.5833C22.9165 16.8812 21.0478 18.75 18.7499 18.75ZM18.7499 12.5C17.6019 12.5 16.6665 13.4354 16.6665 14.5833C16.6665 15.7312 17.6019 16.6666 18.7499 16.6666C19.8978 16.6666 20.8332 15.7312 20.8332 14.5833C20.8332 13.4354 19.8978 12.5 18.7499 12.5ZM9.5207 35.2708C9.31483 35.2708 9.11359 35.2097 8.9424 35.0954C8.7712 34.981 8.63772 34.8185 8.55881 34.6284C8.4799 34.4383 8.4591 34.229 8.49904 34.0271C8.53897 33.8251 8.63785 33.6395 8.7832 33.4937L18.6228 23.6541C19.8019 22.475 21.8624 22.475 23.0415 23.6541L25.9707 26.5833L34.079 16.8541C34.3701 16.5051 34.7337 16.2236 35.1446 16.0293C35.5555 15.8351 36.0037 15.7326 36.4582 15.7291H36.4811C36.9318 15.7289 37.3772 15.8261 37.7868 16.0142C38.1964 16.2023 38.5605 16.4767 38.854 16.8187L49.7499 29.5312C49.8407 29.6348 49.91 29.7553 49.9539 29.8859C49.9978 30.0165 50.0154 30.1544 50.0056 30.2918C49.9959 30.4292 49.959 30.5633 49.897 30.6864C49.8351 30.8094 49.7493 30.9189 49.6448 31.0086C49.5402 31.0983 49.4189 31.1663 49.2879 31.2088C49.1569 31.2513 49.0187 31.2674 48.8814 31.2561C48.7441 31.2448 48.6104 31.2065 48.4881 31.1432C48.3657 31.0799 48.2572 30.993 48.1686 30.8875L37.2728 18.175C37.1752 18.0605 37.0538 17.9687 36.9171 17.9061C36.7803 17.8434 36.6315 17.8115 36.4811 17.8125C36.3291 17.8165 36.1796 17.8519 36.042 17.9165C35.9043 17.981 35.7815 18.0732 35.6811 18.1875L26.8415 28.7937C26.7488 28.9051 26.6338 28.9958 26.5039 29.06C26.374 29.1243 26.2321 29.1606 26.0874 29.1666C25.9426 29.1757 25.7975 29.1531 25.6623 29.1006C25.527 29.0481 25.4048 28.9668 25.304 28.8625L21.5686 25.127C21.3697 24.9386 21.1061 24.8336 20.8322 24.8336C20.5582 24.8336 20.2946 24.9386 20.0957 25.127L10.2561 34.9666C10.1596 35.0632 10.0449 35.1398 9.91873 35.192C9.79253 35.2442 9.65726 35.271 9.5207 35.2708Z" fill="#E03021"/>
</g>
</g>
<defs>
<clipPath id="clip0_155_2399">
<rect width="50" height="50" fill="white"/>
</clipPath>
</defs>
</svg>
