<svg width="40" height="40" viewBox="0 0 40 40" fill="none" xmlns="http://www.w3.org/2000/svg">
<g id="Frame" clip-path="url(#clip0_245_2531)">
<g id="Group">
<path id="Vector" d="M28.9245 25.779C29.134 25.6955 29.3526 25.6318 29.5789 25.5951C31.9437 25.2121 33.5733 22.974 33.2133 20.6173C33.0498 19.8049 33.3137 18.6904 34.0959 17.8986C35.7751 16.1982 35.7739 13.4328 34.0807 11.7221C33.3867 11.0205 33.0613 10.0197 33.2126 9.02754C33.5733 6.66254 31.9467 4.4248 29.5734 4.03722C28.5974 3.87761 27.744 3.25683 27.2917 2.37722C26.1948 0.243238 23.5609 -0.614653 21.4123 0.469957C20.5283 0.917066 19.4712 0.916519 18.5836 0.468082C16.4411 -0.612934 13.8059 0.242222 12.7078 2.37675C12.2555 3.25668 11.4022 3.87746 10.4139 4.03886C8.0528 4.42464 6.42608 6.66238 6.78928 9.04418C6.93819 10.0196 6.61288 11.0204 5.90663 11.7336C4.22561 13.4327 4.22436 16.1982 5.92124 17.9164C6.61405 18.6178 6.93874 19.618 6.78803 20.6056C6.42608 22.9736 8.05647 25.2123 10.4217 25.5953C10.6475 25.6318 10.8657 25.6954 11.0749 25.7787L5.41045 35.2346C5.11944 35.7196 5.57514 36.3131 6.11733 36.1568L10.6965 34.857L11.7111 39.508C11.8312 40.0618 12.5683 40.1811 12.8575 39.696L19.3187 28.9105C19.7674 28.8114 20.2324 28.8114 20.6811 28.9105L27.1423 39.696C27.4291 40.1779 28.168 40.0642 28.2887 39.508L29.3032 34.857L33.8824 36.1568C34.4243 36.3119 34.8807 35.7202 34.5893 35.2346L28.9245 25.779ZM12.5962 37.7003L11.7758 33.9411C11.6994 33.5893 11.3421 33.3747 10.9944 33.4729L7.2935 34.5234L12.1209 26.4647C12.3546 26.6953 12.5562 26.9601 12.7089 27.2578C13.6226 29.0371 15.6023 29.9258 17.4798 29.5475L12.5962 37.7003ZM18.0219 28.0535C16.4923 28.8281 14.6049 28.2149 13.8212 26.6871C13.1875 25.4522 11.9905 24.5827 10.6208 24.3608C8.93006 24.0874 7.76538 22.4872 8.02538 20.7805C8.2335 19.4184 7.77999 18.0194 6.79358 17.0201C5.59295 15.8045 5.5935 13.8277 6.80764 12.6011C7.77819 11.6199 8.23358 10.2199 8.02233 8.83879C7.76467 7.14832 8.92756 5.54839 10.6276 5.27066C11.9937 5.04753 13.1869 4.17925 13.82 2.94839C14.6029 1.42527 16.4853 0.809097 18.0238 1.58566C19.2605 2.21066 20.7383 2.21011 21.9798 1.58378C23.5119 0.810425 25.3956 1.42293 26.1794 2.94863C26.8124 4.17918 28.0058 5.04753 29.3841 5.27238C31.0719 5.54832 32.2347 7.14816 31.9747 8.8555C31.7659 10.2198 32.2212 11.6197 33.204 12.6131C34.4058 13.8275 34.4065 15.8043 33.1881 17.0378C31.5119 18.7358 31.9916 20.9121 31.9758 20.794C32.234 22.4869 31.0688 24.0871 29.3786 24.361C28.0082 24.5825 26.8124 25.4521 26.1783 26.687C25.3951 28.2145 23.5114 28.8271 21.9757 28.0527C20.7383 27.4282 19.2605 27.4282 18.0219 28.0535ZM29.005 33.4729C28.6551 33.3755 28.2998 33.5902 28.2237 33.9411L27.4033 37.7003L22.5187 29.5463C22.8044 29.6038 23.092 29.6378 23.3783 29.6378C24.9733 29.6378 26.5158 28.7668 27.2904 27.2578C27.4431 26.9602 27.6448 26.6953 27.8784 26.4649L32.7058 34.5235L29.005 33.4729Z" fill="#E03021"/>
<path id="Vector_2" d="M29.199 14.8156C29.199 9.7431 25.0721 5.61646 19.9997 5.61646C14.9272 5.61646 10.8003 9.7431 10.8003 14.8156C10.8003 19.8918 14.9272 24.0217 19.9997 24.0217C25.0721 24.0217 29.199 19.8918 29.199 14.8156ZM19.9997 22.7716C15.6164 22.7716 12.0504 19.2025 12.0504 14.8157C12.0504 10.4326 15.6163 6.86669 19.9997 6.86669C24.383 6.86669 27.949 10.4326 27.949 14.8157C27.9489 19.2025 24.3829 22.7716 19.9997 22.7716Z" fill="#E03021"/>
<path id="Vector_3" d="M22.6557 12.0496L18.442 16.2633L17.3439 15.1648C17.2858 15.1068 17.2169 15.0607 17.1411 15.0293C17.0653 14.9979 16.984 14.9817 16.9019 14.9817C16.8198 14.9817 16.7386 14.9979 16.6627 15.0293C16.5869 15.0607 16.518 15.1068 16.46 15.1648C16.2158 15.4087 16.2158 15.8046 16.46 16.0487L18 17.5891C18.058 17.6471 18.1269 17.6931 18.2027 17.7246C18.2786 17.756 18.3598 17.7721 18.4419 17.7721C18.524 17.7721 18.6053 17.756 18.6811 17.7246C18.7569 17.6931 18.8258 17.6471 18.8839 17.5891L23.5394 12.9335C23.5975 12.8755 23.6435 12.8066 23.6749 12.7308C23.7063 12.6549 23.7225 12.5736 23.7225 12.4916C23.7225 12.4095 23.7063 12.3282 23.6749 12.2524C23.6435 12.1765 23.5975 12.1076 23.5394 12.0496C23.4814 11.9915 23.4125 11.9455 23.3367 11.9141C23.2609 11.8826 23.1796 11.8665 23.0975 11.8665C23.0155 11.8665 22.9342 11.8826 22.8584 11.9141C22.7826 11.9455 22.7137 11.9915 22.6557 12.0496Z" fill="#E03021"/>
</g>
</g>
<defs>
<clipPath id="clip0_245_2531">
<rect width="40" height="40" fill="white"/>
</clipPath>
</defs>
</svg>
