<svg width="40" height="40" viewBox="0 0 40 40" fill="none" xmlns="http://www.w3.org/2000/svg">
<g id="Frame">
<g id="Group">
<path id="Vector" d="M35.625 4.76562H4.375C3.5672 4.76653 2.79274 5.08784 2.22154 5.65904C1.65034 6.23024 1.32903 7.0047 1.32812 7.8125V31.875C1.32912 32.7657 1.68337 33.6196 2.31316 34.2493C2.94295 34.8791 3.79684 35.2334 4.6875 35.2344H35.3125C36.2032 35.2334 37.0571 34.8791 37.6868 34.2493C38.3166 33.6196 38.6709 32.7657 38.6719 31.875V7.8125C38.671 7.0047 38.3497 6.23024 37.7785 5.65904C37.2073 5.08784 36.4328 4.76653 35.625 4.76562ZM37.5781 7.8125V11.4634H16.5275L19.1781 5.85938H35.625C36.1428 5.85995 36.6393 6.06591 37.0054 6.43207C37.3716 6.79823 37.5775 7.29468 37.5781 7.8125ZM4.375 5.85938H17.9688L15.3175 11.4634H2.42188V7.8125C2.42245 7.29468 2.62842 6.79823 2.99457 6.43207C3.36073 6.06591 3.85718 5.85995 4.375 5.85938ZM35.3125 34.1406H4.6875C4.08682 34.14 3.51094 33.9011 3.08619 33.4763C2.66145 33.0516 2.42254 32.4757 2.42188 31.875V12.5572H37.5781V31.875C37.5775 32.4757 37.3386 33.0516 36.9138 33.4763C36.4891 33.9011 35.9132 34.14 35.3125 34.1406Z" fill="#E03021"/>
<path id="Vector_2" d="M6.74072 10.4585C7.09611 10.4585 7.44352 10.3531 7.73901 10.1557C8.03451 9.95823 8.26482 9.67759 8.40082 9.34926C8.53682 9.02092 8.5724 8.65963 8.50307 8.31107C8.43374 7.96251 8.2626 7.64234 8.01131 7.39104C7.76001 7.13974 7.43984 6.96861 7.09128 6.89927C6.74272 6.82994 6.38142 6.86552 6.05309 7.00153C5.72475 7.13753 5.44412 7.36784 5.24668 7.66333C5.04923 7.95883 4.94385 8.30623 4.94385 8.66162C4.94434 9.13803 5.13382 9.59478 5.47069 9.93166C5.80756 10.2685 6.26431 10.458 6.74072 10.4585ZM6.74072 7.9585C6.87979 7.9585 7.01573 7.99973 7.13136 8.07699C7.24699 8.15426 7.33711 8.26407 7.39033 8.39255C7.44354 8.52103 7.45747 8.6624 7.43034 8.79879C7.40321 8.93519 7.33624 9.06047 7.23791 9.15881C7.13957 9.25714 7.01429 9.32411 6.8779 9.35124C6.7415 9.37837 6.60013 9.36444 6.47165 9.31122C6.34317 9.25801 6.23336 9.16789 6.1561 9.05226C6.07884 8.93663 6.0376 8.80069 6.0376 8.66162C6.03785 8.47522 6.112 8.29652 6.24381 8.16471C6.37562 8.0329 6.55432 7.95874 6.74072 7.9585ZM11.7582 10.4585C12.1136 10.4585 12.461 10.3531 12.7565 10.1557C13.052 9.95823 13.2823 9.67759 13.4183 9.34926C13.5543 9.02092 13.5899 8.65963 13.5206 8.31107C13.4512 7.96251 13.2801 7.64234 13.0288 7.39104C12.7775 7.13974 12.4573 6.96861 12.1088 6.89927C11.7602 6.82994 11.3989 6.86552 11.0706 7.00153C10.7423 7.13753 10.4616 7.36784 10.2642 7.66333C10.0667 7.95883 9.96135 8.30623 9.96135 8.66162C9.96184 9.13803 10.1513 9.59478 10.4882 9.93166C10.8251 10.2685 11.2818 10.458 11.7582 10.4585ZM11.7582 7.9585C11.8973 7.9585 12.0332 7.99973 12.1489 8.07699C12.2645 8.15426 12.3546 8.26407 12.4078 8.39255C12.461 8.52103 12.475 8.6624 12.4478 8.79879C12.4207 8.93519 12.3537 9.06047 12.2554 9.15881C12.1571 9.25714 12.0318 9.32411 11.8954 9.35124C11.759 9.37837 11.6176 9.36444 11.4891 9.31122C11.3607 9.25801 11.2509 9.16789 11.1736 9.05226C11.0963 8.93663 11.0551 8.80069 11.0551 8.66162C11.0553 8.47522 11.1295 8.29652 11.2613 8.16471C11.3931 8.0329 11.5718 7.95874 11.7582 7.9585ZM21.1007 9.2085H35.0835C35.2286 9.2085 35.3677 9.15088 35.4702 9.04832C35.5728 8.94576 35.6304 8.80666 35.6304 8.66162C35.6304 8.51658 35.5728 8.37748 35.4702 8.27492C35.3677 8.17236 35.2286 8.11475 35.0835 8.11475H21.1007C20.9557 8.11475 20.8166 8.17236 20.714 8.27492C20.6115 8.37748 20.5538 8.51658 20.5538 8.66162C20.5538 8.80666 20.6115 8.94576 20.714 9.04832C20.8166 9.15088 20.9557 9.2085 21.1007 9.2085ZM20.6042 24.521H5.60416C5.45912 24.521 5.32002 24.5786 5.21746 24.6812C5.1149 24.7837 5.05729 24.9228 5.05729 25.0679C5.05729 25.2129 5.1149 25.352 5.21746 25.4546C5.32002 25.5571 5.45912 25.6147 5.60416 25.6147H20.6042C20.7492 25.6147 20.8883 25.5571 20.9909 25.4546C21.0934 25.352 21.151 25.2129 21.151 25.0679C21.151 24.9228 21.0934 24.7837 20.9909 24.6812C20.8883 24.5786 20.7492 24.521 20.6042 24.521ZM17.2479 27.9585H5.60416C5.45912 27.9585 5.32002 28.0161 5.21746 28.1187C5.1149 28.2212 5.05729 28.3603 5.05729 28.5054C5.05729 28.6504 5.1149 28.7895 5.21746 28.8921C5.32002 28.9946 5.45912 29.0522 5.60416 29.0522H17.2479C17.393 29.0522 17.5321 28.9946 17.6346 28.8921C17.7372 28.7895 17.7948 28.6504 17.7948 28.5054C17.7948 28.3603 17.7372 28.2212 17.6346 28.1187C17.5321 28.0161 17.393 27.9585 17.2479 27.9585ZM5.60416 22.1772H17.2479C17.393 22.1772 17.5321 22.1196 17.6346 22.0171C17.7372 21.9145 17.7948 21.7754 17.7948 21.6304C17.7948 21.4853 17.7372 21.3462 17.6346 21.2437C17.5321 21.1411 17.393 21.0835 17.2479 21.0835H5.60416C5.45912 21.0835 5.32002 21.1411 5.21746 21.2437C5.1149 21.3462 5.05729 21.4853 5.05729 21.6304C5.05729 21.7754 5.1149 21.9145 5.21746 22.0171C5.32002 22.1196 5.45912 22.1772 5.60416 22.1772ZM20.6042 17.646H5.60416C5.45912 17.646 5.32002 17.7036 5.21746 17.8062C5.1149 17.9087 5.05729 18.0478 5.05729 18.1929C5.05729 18.3379 5.1149 18.477 5.21746 18.5796C5.32002 18.6821 5.45912 18.7397 5.60416 18.7397H20.6042C20.7492 18.7397 20.8883 18.6821 20.9909 18.5796C21.0934 18.477 21.151 18.3379 21.151 18.1929C21.151 18.0478 21.0934 17.9087 20.9909 17.8062C20.8883 17.7036 20.7492 17.646 20.6042 17.646ZM34.396 26.5938H26.0998C25.9547 26.5938 25.8156 26.6514 25.7131 26.754C25.6105 26.8565 25.5529 26.9956 25.5529 27.1407V30.2244C25.5529 30.3695 25.6105 30.5086 25.7131 30.6111C25.8156 30.7137 25.9547 30.7713 26.0998 30.7713H34.396C34.4679 30.7714 34.539 30.7572 34.6054 30.7298C34.6717 30.7023 34.732 30.662 34.7828 30.6112C34.8336 30.5604 34.8739 30.5001 34.9014 30.4338C34.9288 30.3674 34.943 30.2963 34.9429 30.2244V27.1404C34.9429 27.0686 34.9288 26.9975 34.9013 26.9311C34.8738 26.8648 34.8335 26.8045 34.7827 26.7538C34.7319 26.703 34.6716 26.6628 34.6053 26.6353C34.5389 26.6079 34.4678 26.5938 34.396 26.5938ZM33.8492 29.6776H26.6467V27.6876H33.8492V29.6776ZM30.2479 15.9272C29.3193 15.9272 28.4116 16.2026 27.6395 16.7185C26.8674 17.2344 26.2656 17.9677 25.9103 18.8256C25.5549 19.6835 25.462 20.6276 25.6431 21.5383C25.8243 22.4491 26.2715 23.2856 26.9282 23.9422C27.5848 24.5988 28.4214 25.0459 29.3322 25.2271C30.2429 25.4082 31.1869 25.3152 32.0448 24.9598C32.9027 24.6044 33.636 24.0026 34.1518 23.2304C34.6677 22.4583 34.943 21.5505 34.9429 20.6219C34.9415 19.3772 34.4464 18.1839 33.5662 17.3037C32.686 16.4236 31.4926 15.9286 30.2479 15.9272ZM30.2479 24.2235C29.5357 24.2235 28.8394 24.0123 28.2472 23.6166C27.655 23.2209 27.1934 22.6585 26.9208 22.0005C26.6482 21.3424 26.5769 20.6184 26.7158 19.9198C26.8548 19.2212 27.1977 18.5795 27.7013 18.0759C28.2049 17.5722 28.8466 17.2292 29.5452 17.0902C30.2437 16.9512 30.9678 17.0225 31.6258 17.295C32.2839 17.5676 32.8463 18.0291 33.2421 18.6213C33.6378 19.2135 33.8491 19.9097 33.8492 20.6219C33.8482 21.5768 33.4684 22.4922 32.7933 23.1674C32.1182 23.8426 31.2027 24.2224 30.2479 24.2235Z" fill="#E03021"/>
</g>
</g>
</svg>
