<svg width="22" height="22" viewBox="0 0 22 22" fill="none" xmlns="http://www.w3.org/2000/svg">
<path d="M21.8112 4.33099L17.669 0.188805C17.5481 0.0679285 17.3842 1.37141e-05 17.2133 0L2.37041 0C1.06339 0 0 1.06339 0 2.37046V19.6295C0 20.9366 1.06339 22 2.37041 22H19.6295C20.9366 22 22 20.9366 22 19.6295V4.78672C22 4.61578 21.9321 4.45185 21.8112 4.33099ZM15.188 1.28906V6.5126C15.188 7.10888 14.7029 7.594 14.1066 7.594H6.5126C5.91632 7.594 5.43121 7.10888 5.43121 6.5126V1.28906H15.188ZM5.43121 20.7109V14.1066C5.43121 13.5104 5.91632 13.0253 6.5126 13.0253H15.4873C16.0836 13.0253 16.5687 13.5104 16.5687 14.1066V20.7109H5.43121ZM20.7109 19.6295C20.7109 20.2258 20.2258 20.7109 19.6295 20.7109H17.8578V14.1066C17.8578 12.7996 16.7944 11.7362 15.4874 11.7362H6.5126C5.20553 11.7362 4.14214 12.7996 4.14214 14.1066V20.7109H2.37041C1.77418 20.7109 1.28906 20.2258 1.28906 19.6295V2.37046C1.28906 1.77418 1.77418 1.28906 2.37041 1.28906H4.14214V6.5126C4.14214 7.81967 5.20553 8.88306 6.5126 8.88306H14.1066C15.4137 8.88306 16.4771 7.81967 16.4771 6.5126V1.28906H16.9463L20.7109 5.05373V19.6295Z" fill="white"/>
</svg>
