<svg width="40" height="40" viewBox="0 0 40 40" fill="none" xmlns="http://www.w3.org/2000/svg">
<g id="Frame" clip-path="url(#clip0_245_2514)">
<g id="Group">
<path id="Vector" d="M39.0708 19.1713L35.6954 15.7958C34.8014 14.9018 33.3207 15.8618 33.7721 17.0429L34.2305 18.2421H27.6139C27.4196 17.3986 27.0857 16.5934 26.6259 15.86L31.3054 11.1804L31.8293 12.3525C32.3451 13.5069 34.0711 13.1388 34.0711 11.8744V7.10082C34.0711 6.45363 33.5464 5.92894 32.8992 5.92894H28.1256C26.8612 5.92894 26.4931 7.6548 27.6475 8.17074L28.8196 8.69457L24.14 13.3741C23.4066 12.9143 22.6014 12.5804 21.7579 12.3861V5.76941L22.9571 6.22785C24.1381 6.67934 25.0982 5.19863 24.2041 4.30457L20.8287 0.92918C20.3711 0.471523 19.6291 0.471523 19.1714 0.92918L15.796 4.30457C14.9019 5.19863 15.862 6.67934 17.0431 6.22785L18.2423 5.76941V12.3861C17.3987 12.5803 16.5936 12.9142 15.8601 13.374L11.1804 8.69449L12.3525 8.17066C13.5069 7.6548 13.1388 5.92887 11.8744 5.92887H7.10082C6.45363 5.92887 5.92894 6.45355 5.92894 7.10074V11.8743C5.92894 13.1387 7.6548 13.5068 8.17074 12.3525L8.69457 11.1804L13.3741 15.8599C12.9143 16.5933 12.5804 17.3985 12.3861 18.2421H5.76941L6.22785 17.0429C6.67934 15.8618 5.19863 14.9018 4.30457 15.7957L0.92918 19.1712C0.471523 19.6289 0.471523 20.3708 0.92918 20.8285L4.30457 24.2039C5.19863 25.098 6.67934 24.1379 6.22785 22.9568L5.76941 21.7576H12.3861C12.5803 22.6012 12.9142 23.4064 13.374 24.1398L8.69449 28.8195L8.17066 27.6474C7.6548 26.493 5.92887 26.8611 5.92887 28.1255V32.8991C5.92887 33.5463 6.45355 34.071 7.10074 34.071H11.8743C13.1387 34.071 13.5068 32.3451 12.3525 31.8292L11.1804 31.3054L15.8599 26.6258C16.5933 27.0856 17.3985 27.4195 18.2421 27.6138V34.2304L17.0429 33.772C15.8618 33.3205 14.9018 34.8012 15.7957 35.6953L19.1712 39.0707C19.6289 39.5283 20.3708 39.5283 20.8285 39.0707L24.2039 35.6953C25.0979 34.8012 24.1379 33.3205 22.9568 33.772L21.7576 34.2304V27.6138C22.6012 27.4195 23.4064 27.0856 24.1398 26.6258L28.8193 31.3054L27.6472 31.8292C26.4929 32.345 26.861 34.071 28.1254 34.071H32.8989C33.5461 34.071 34.0708 33.5463 34.0708 32.8991V28.1255C34.0708 26.8611 32.345 26.493 31.829 27.6474L31.3052 28.8195L26.6257 24.14C27.0854 23.4065 27.4194 22.6013 27.6136 21.7578H34.2303L33.7719 22.957C33.3204 24.138 34.8011 25.0981 35.6952 24.2041L39.0706 20.8286C39.5284 20.371 39.5284 19.6289 39.0708 19.1713Z" stroke="#E03021" stroke-width="1.17188" stroke-miterlimit="10" stroke-linecap="round" stroke-linejoin="round"/>
<path id="Vector_2" d="M20 24.2969C22.3731 24.2969 24.2969 22.3731 24.2969 20C24.2969 17.6269 22.3731 15.7031 20 15.7031C17.6269 15.7031 15.7031 17.6269 15.7031 20C15.7031 22.3731 17.6269 24.2969 20 24.2969Z" stroke="#E03021" stroke-width="1.17188" stroke-miterlimit="10" stroke-linecap="round" stroke-linejoin="round"/>
</g>
</g>
<defs>
<clipPath id="clip0_245_2514">
<rect width="40" height="40" fill="white"/>
</clipPath>
</defs>
</svg>
