<svg width="55" height="50" viewBox="0 0 55 50" fill="none" xmlns="http://www.w3.org/2000/svg">
<g id="Group 48097130">
<path id="Star 28" d="M27.4068 0.403221C27.4598 0.355694 27.5402 0.355694 27.5932 0.40322L41.3063 12.689L54.8866 25.0566C54.9474 25.112 54.9474 25.2077 54.8866 25.2631L41.3063 37.6308L27.5932 49.9165C27.5402 49.964 27.4598 49.964 27.4068 49.9165L13.6937 37.6308L0.113397 25.2631C0.0525581 25.2077 0.0525572 25.112 0.113396 25.0566L13.6937 12.689L27.4068 0.403221Z" fill="white"/>
<path id="Vector 68" d="M27.4839 43.1565L2.90219 17.3219C2.75832 17.1707 2.8655 16.9208 3.07421 16.9208H8.43328C8.4975 16.9208 8.55898 16.9468 8.60369 16.9929L27.4824 36.4503C27.5761 36.5468 27.7311 36.5464 27.8242 36.4494L46.4999 16.9938C46.5447 16.9471 46.6065 16.9208 46.6712 16.9208H52.8757C53.0859 16.9208 53.1924 17.1737 53.0456 17.3241L27.8259 43.1587C27.7319 43.255 27.5767 43.254 27.4839 43.1565Z" fill="#181D2B"/>
<path id="Vector 69" d="M27.4919 0L6.81738 45.155L27.4919 7.07595L48.3735 45.155L27.4919 0Z" fill="#181D2B"/>
</g>
</svg>
