<svg width="19" height="22" viewBox="0 0 19 22" fill="none" xmlns="http://www.w3.org/2000/svg">
<path d="M12.1476 7.9707C11.863 7.9707 11.6323 8.20137 11.6323 8.48592V18.2236C11.6323 18.508 11.863 18.7388 12.1476 18.7388C12.4322 18.7388 12.6628 18.508 12.6628 18.2236V8.48592C12.6628 8.20137 12.4322 7.9707 12.1476 7.9707ZM6.06796 7.9707C5.7834 7.9707 5.55273 8.20137 5.55273 8.48592V18.2236C5.55273 18.508 5.7834 18.7388 6.06796 18.7388C6.35256 18.7388 6.58318 18.508 6.58318 18.2236V8.48592C6.58318 8.20137 6.35256 7.9707 6.06796 7.9707Z" fill="#616161"/>
<path d="M1.63713 6.54961V19.2436C1.63713 19.9939 1.91226 20.6985 2.39286 21.204C2.6295 21.4548 2.9148 21.6548 3.23131 21.7916C3.54782 21.9285 3.88891 21.9994 4.23374 22H13.9819C14.3268 21.9994 14.6679 21.9285 14.9844 21.7917C15.3009 21.6548 15.5862 21.4548 15.8228 21.204C16.3035 20.6985 16.5785 19.9939 16.5785 19.2436V6.54961C17.5339 6.29602 18.153 5.37305 18.0252 4.39274C17.8972 3.41258 17.0622 2.67942 16.0736 2.67922H13.4357V2.03519C13.4372 1.76709 13.3854 1.50136 13.2833 1.25344C13.1813 1.00551 13.031 0.780335 12.8412 0.590974C12.6513 0.401631 12.4258 0.251893 12.1776 0.150453C11.9294 0.0490139 11.6635 -0.00210441 11.3954 6.67858e-05H6.82036C6.55223 -0.00211125 6.28634 0.0490037 6.03813 0.150443C5.78993 0.251883 5.56435 0.401625 5.37449 0.590974C5.18469 0.780335 5.0344 1.00551 4.93234 1.25344C4.83029 1.50136 4.7785 1.76709 4.77998 2.03519V2.67922H2.14215C1.15354 2.67942 0.318523 3.41258 0.190491 4.39274C0.0627158 5.37305 0.681754 6.29602 1.63713 6.54961ZM13.9819 20.9696H4.23379C3.35287 20.9696 2.66757 20.2128 2.66757 19.2436V6.5949H15.5481V19.2436C15.5481 20.2129 14.8629 20.9696 13.9819 20.9696ZM5.81042 2.03519C5.80874 1.90236 5.83376 1.77054 5.88399 1.64756C5.93423 1.52459 6.00866 1.41295 6.10286 1.31929C6.19703 1.22558 6.30907 1.15172 6.43232 1.10212C6.55557 1.05251 6.68752 1.02816 6.82036 1.03051H11.3954C11.5282 1.02816 11.6602 1.05251 11.7834 1.10212C11.9067 1.15172 12.0187 1.22558 12.1129 1.31929C12.2071 1.41295 12.2815 1.52458 12.3317 1.64756C12.382 1.77054 12.407 1.90236 12.4053 2.03519V2.67922H5.81042V2.03519ZM2.14215 3.70966H16.0737C16.5859 3.70966 17.0011 4.12488 17.0011 4.63706C17.0011 5.14924 16.5859 5.56446 16.0737 5.56446H2.1421C1.62992 5.56446 1.2147 5.14924 1.2147 4.63706C1.2147 4.12488 1.62997 3.70966 2.14215 3.70966Z" fill="#616161"/>
<path d="M9.10702 7.9707C8.82246 7.9707 8.5918 8.20137 8.5918 8.48592V18.2236C8.5918 18.508 8.82246 18.7388 9.10702 18.7388C9.39163 18.7388 9.62224 18.508 9.62224 18.2236V8.48592C9.62224 8.20137 9.39163 7.9707 9.10702 7.9707Z" fill="#616161"/>
</svg>
