<svg width="23" height="26" viewBox="0 0 23 26" fill="none" xmlns="http://www.w3.org/2000/svg">
<path d="M11.5 0.5C7.69534 0.5 4.6 3.45708 4.6 7.0918C4.6 10.7265 7.69534 13.6836 11.5 13.6836C15.3047 13.6836 18.4 10.7265 18.4 7.0918C18.4 3.45708 15.3047 0.5 11.5 0.5ZM11.5 12.2188C8.54082 12.2188 6.13333 9.9188 6.13333 7.0918C6.13333 4.2648 8.54082 1.96484 11.5 1.96484C14.4592 1.96484 16.8667 4.2648 16.8667 7.0918C16.8667 9.9188 14.4592 12.2188 11.5 12.2188ZM20.0849 17.99C18.1959 16.1576 15.6916 15.1484 13.0333 15.1484H9.96667C7.30848 15.1484 4.80414 16.1576 2.91507 17.99C1.03526 19.8134 0 22.2204 0 24.7676C0 25.1721 0.343262 25.5 0.766667 25.5H22.2333C22.6567 25.5 23 25.1721 23 24.7676C23 22.2204 21.9647 19.8134 20.0849 17.99ZM1.56707 24.0352C1.95117 19.8806 5.57167 16.6133 9.96667 16.6133H13.0333C17.4283 16.6133 21.0488 19.8806 21.4329 24.0352H1.56707Z" fill="white"/>
</svg>
