<svg width="25" height="26" viewBox="0 0 25 26" fill="none" xmlns="http://www.w3.org/2000/svg">
<path d="M23.898 13.5537L23.9082 13.5435C23.9235 13.5231 23.9388 13.5078 23.949 13.4874C23.9541 13.4823 23.9541 13.4772 23.9592 13.4721C23.9694 13.4517 23.9847 13.4313 23.9949 13.4109C23.9949 13.4058 24 13.4007 24 13.4007C24.0102 13.3802 24.0204 13.3598 24.0306 13.3343C24.0306 13.3292 24.0306 13.3292 24.0357 13.3241C24.046 13.3037 24.0511 13.2782 24.0613 13.2527C24.0613 13.2476 24.0613 13.2425 24.0664 13.2425C24.0715 13.2169 24.0817 13.1965 24.0817 13.171C24.0817 13.1608 24.0817 13.1557 24.0868 13.1455C24.0919 13.1251 24.0919 13.1047 24.097 13.0843C24.1021 13.0536 24.1021 13.0281 24.1021 12.9975C24.1021 12.9669 24.1021 12.9414 24.097 12.9108C24.097 12.8903 24.0919 12.8699 24.0868 12.8495C24.0868 12.8393 24.0868 12.8342 24.0817 12.824C24.0766 12.7985 24.0715 12.7781 24.0664 12.7526C24.0664 12.7475 24.0664 12.7424 24.0613 12.7424C24.0562 12.7168 24.046 12.6964 24.0357 12.6709C24.0357 12.6658 24.0357 12.6658 24.0306 12.6607C24.0204 12.6403 24.0102 12.6148 24 12.5944C24 12.5893 23.9949 12.5842 23.9949 12.5842C23.9847 12.5638 23.9745 12.5433 23.9592 12.5229C23.9541 12.5178 23.9541 12.5127 23.949 12.5076C23.9337 12.4872 23.9235 12.4668 23.9082 12.4515L23.898 12.4413C23.8776 12.4209 23.8622 12.3953 23.8367 12.3749L18.7898 7.33309C18.4479 6.99118 17.8916 6.99118 17.5497 7.33309C17.2078 7.675 17.2078 8.23123 17.5497 8.57314L21.1015 12.1249H6.98125C6.49645 12.1249 6.10352 12.5178 6.10352 12.9975C6.10352 13.4823 6.49645 13.8752 6.98125 13.8752H21.1066L17.5803 17.4015C17.2384 17.7434 17.2384 18.2996 17.5803 18.6415C17.7487 18.8099 17.9733 18.8967 18.1978 18.8967C18.4224 18.8967 18.6469 18.8099 18.8153 18.6415L23.8316 13.6252C23.8571 13.5946 23.8776 13.5742 23.898 13.5537Z" fill="white"/>
<path d="M5.64941 2.25036H12.1814C12.6661 2.25036 13.0591 1.85742 13.0591 1.37773C13.0591 0.892937 12.6661 0.5 12.1814 0.5H5.64941C3.03153 0.5 0.898438 2.63309 0.898438 5.25097V20.749C0.898438 23.3669 3.03153 25.5 5.64941 25.5H12.0742C12.559 25.5 12.9519 25.1071 12.9519 24.6274C12.9519 24.1426 12.559 23.7496 12.0742 23.7496H5.64941C3.99601 23.7496 2.64879 22.4024 2.64879 20.749V5.25097C2.6539 3.59247 3.99601 2.25036 5.64941 2.25036Z" fill="white"/>
</svg>
