<svg width="25" height="26" viewBox="0 0 25 26" fill="none" xmlns="http://www.w3.org/2000/svg">
<g clip-path="url(#clip0_1104_1366)">
<path d="M22.41 3.96861C21.9064 3.94073 21.4359 4.29263 21.4359 4.8231V8.10176H13.3698L13.0123 7.3544C13.8398 6.25718 13.4839 4.63658 12.2814 3.97794L12.3069 1.5671C12.3215 0.175104 10.1772 0.164752 10.1626 1.54449L10.1372 3.95279C8.92227 4.58546 8.53203 6.2023 9.3353 7.31544L8.93853 8.10176H0.854492C0.38335 8.10176 0 8.48511 0 8.95626V24.6291C0 25.1003 0.38335 25.4836 0.854492 25.4836H22.5622C23.8991 25.4836 24.9877 24.4017 24.9995 23.0674C24.9996 23.0638 25 23.0602 25 23.0565V6.5587C25 5.13052 23.8381 3.96861 22.41 3.96861ZM22.1684 4.8231C22.1684 4.70191 22.321 4.68179 22.41 4.70103C23.4343 4.70103 24.2676 5.53433 24.2676 6.55865V21.3158C23.8274 20.8844 23.225 20.618 22.5615 20.618C22.4662 20.6326 22.1684 20.6596 22.1684 20.4959V4.8231ZM16.2955 15.9147L15.9129 16.999L11.7063 8.20591C11.9726 8.14392 12.2256 8.03438 12.453 7.88258L16.2955 15.9147ZM9.8832 7.85538C10.1073 8.01201 10.3578 8.12692 10.6227 8.19459L6.23154 16.8968L5.87197 15.8046L9.8832 7.85538ZM12.4367 11.4298L9.82456 11.4023L11.1587 8.75831L12.4367 11.4298ZM10.895 1.55225C10.8997 1.10464 11.579 1.12383 11.5744 1.55938L11.5516 3.72755C11.3267 3.69144 11.0978 3.68865 10.8721 3.71924L10.895 1.55225ZM10.1026 4.87369C10.3938 4.58863 10.7972 4.42745 11.2043 4.43091C12.0597 4.43995 12.7482 5.14317 12.7393 5.99854C12.7303 6.8484 12.0361 7.53355 11.1882 7.53355L11.1716 7.53345C10.3162 7.52442 9.62773 6.8212 9.63672 5.96583C9.64106 5.55147 9.80654 5.16358 10.1026 4.87369ZM22.5622 24.7512H0.854492C0.822129 24.7512 0.791102 24.7383 0.768218 24.7154C0.745334 24.6925 0.732461 24.6615 0.732422 24.6292V8.95631C0.732422 8.88902 0.787158 8.83424 0.854492 8.83424H8.56885L7.28652 11.3755L6.04941 11.3624C5.57881 11.354 5.56899 12.0898 6.0417 12.0948L6.9189 12.1041L5.19521 15.52C5.15893 15.5914 5.13716 15.6694 5.13119 15.7493C5.12521 15.8292 5.13514 15.9095 5.1604 15.9856L5.62817 17.4064C5.79468 17.9121 6.51255 17.9657 6.75239 17.4904L9.45684 12.1309L12.7889 12.166L15.3793 17.5809C15.608 18.059 16.3285 18.0221 16.5055 17.5206L17.0029 16.1107C17.0298 16.0351 17.0415 15.955 17.0372 15.8749C17.0329 15.7948 17.0127 15.7164 16.9779 15.6441L15.3268 12.1928L16.204 12.202C16.6746 12.2104 16.6844 11.4746 16.2117 11.4696L14.9746 11.4566L13.7201 8.83419H21.4358V20.496C21.4358 21.1386 22.0158 21.3707 22.5614 21.3504C23.5003 21.3504 24.2644 22.1129 24.2674 23.0512C24.2645 23.9891 23.5007 24.7512 22.5622 24.7512Z" fill="white"/>
<path d="M19.1809 18.7415H2.9873C2.65073 18.7415 2.37695 19.0152 2.37695 19.3518V22.6721C2.37695 23.0087 2.65073 23.2825 2.9873 23.2825H19.1809C19.5175 23.2825 19.7913 23.0087 19.7913 22.6721V19.3518C19.7912 19.0153 19.5174 18.7415 19.1809 18.7415ZM19.0588 22.55H3.10938V19.4739H4.05308V20.1295C4.05308 20.5878 4.7855 20.6086 4.7855 20.1295V19.4739H5.71929V20.6178C5.71929 21.0761 6.45171 21.0969 6.45171 20.6178V19.4739H7.38545V20.1295C7.38545 20.5878 8.11787 20.6086 8.11787 20.1295V19.4739H9.05166V20.6178C9.05166 21.0761 9.78408 21.0969 9.78408 20.6178V19.4739H10.7179V20.1295C10.7179 20.5878 11.4503 20.6086 11.4503 20.1295V19.4739H12.3841V20.6178C12.3841 21.0761 13.1165 21.0969 13.1165 20.6178V19.4739H14.0503V20.1295C14.0503 20.5878 14.7827 20.6086 14.7827 20.1295V19.4739H15.7165V20.6178C15.7165 21.0761 16.4489 21.0969 16.4489 20.6178V19.4739H17.3827V20.1295C17.3827 20.5878 18.1151 20.6086 18.1151 20.1295V19.4739H19.0588V22.55Z" fill="white"/>
</g>
<defs>
<clipPath id="clip0_1104_1366">
<rect width="25" height="25" fill="white" transform="translate(0 0.5)"/>
</clipPath>
</defs>
</svg>
